<mxfile host="65bd71144e">
    <diagram name="Page-1" id="TA4dcKrlhNkPoyvkjZEq">
        <mxGraphModel dx="725" dy="431" grid="1" gridSize="10" guides="1" tooltips="1" connect="1" arrows="1" fold="1" page="1" pageScale="1" pageWidth="3300" pageHeight="2339" math="0" shadow="0">
            <root>
                <mxCell id="0"/>
                <mxCell id="1" parent="0"/>
                <mxCell id="DBd0I7r8SlKwqOfB-w20-1" value="PATIENTS" style="shape=table;startSize=25;container=1;collapsible=0;childLayout=tableLayout;fixedRows=1;rowLines=1;fontStyle=1;align=center;resizeLast=1;" parent="1" vertex="1">
                    <mxGeometry x="1025" y="234" width="214" height="201" as="geometry"/>
                </mxCell>
                <mxCell id="DBd0I7r8SlKwqOfB-w20-2" style="shape=tableRow;horizontal=0;startSize=0;swimlaneHead=0;swimlaneBody=0;fillColor=none;collapsible=0;dropTarget=0;points=[[0,0.5],[1,0.5]];portConstraint=eastwest;top=0;left=0;right=0;bottom=0;" parent="DBd0I7r8SlKwqOfB-w20-1" vertex="1">
                    <mxGeometry y="25" width="214" height="22" as="geometry"/>
                </mxCell>
                <mxCell id="DBd0I7r8SlKwqOfB-w20-3" value="int" style="shape=partialRectangle;connectable=0;fillColor=none;top=0;left=0;bottom=0;right=0;align=left;spacingLeft=2;overflow=hidden;fontSize=11;" parent="DBd0I7r8SlKwqOfB-w20-2" vertex="1">
                    <mxGeometry width="36" height="22" as="geometry">
                        <mxRectangle width="36" height="22" as="alternateBounds"/>
                    </mxGeometry>
                </mxCell>
                <mxCell id="DBd0I7r8SlKwqOfB-w20-4" value="patient_id" style="shape=partialRectangle;connectable=0;fillColor=none;top=0;left=0;bottom=0;right=0;align=left;spacingLeft=2;overflow=hidden;fontSize=11;" parent="DBd0I7r8SlKwqOfB-w20-2" vertex="1">
                    <mxGeometry x="36" width="66" height="22" as="geometry">
                        <mxRectangle width="66" height="22" as="alternateBounds"/>
                    </mxGeometry>
                </mxCell>
                <mxCell id="DBd0I7r8SlKwqOfB-w20-5" value="PK" style="shape=partialRectangle;connectable=0;fillColor=none;top=0;left=0;bottom=0;right=0;align=left;spacingLeft=2;overflow=hidden;fontSize=11;" parent="DBd0I7r8SlKwqOfB-w20-2" vertex="1">
                    <mxGeometry x="102" width="22" height="22" as="geometry">
                        <mxRectangle width="22" height="22" as="alternateBounds"/>
                    </mxGeometry>
                </mxCell>
                <mxCell id="DBd0I7r8SlKwqOfB-w20-6" value="" style="shape=partialRectangle;connectable=0;fillColor=none;top=0;left=0;bottom=0;right=0;align=left;spacingLeft=2;overflow=hidden;fontSize=11;" parent="DBd0I7r8SlKwqOfB-w20-2" vertex="1">
                    <mxGeometry x="124" width="90" height="22" as="geometry">
                        <mxRectangle width="90" height="22" as="alternateBounds"/>
                    </mxGeometry>
                </mxCell>
                <mxCell id="DBd0I7r8SlKwqOfB-w20-7" style="shape=tableRow;horizontal=0;startSize=0;swimlaneHead=0;swimlaneBody=0;fillColor=none;collapsible=0;dropTarget=0;points=[[0,0.5],[1,0.5]];portConstraint=eastwest;top=0;left=0;right=0;bottom=0;" parent="DBd0I7r8SlKwqOfB-w20-1" vertex="1">
                    <mxGeometry y="47" width="214" height="22" as="geometry"/>
                </mxCell>
                <mxCell id="DBd0I7r8SlKwqOfB-w20-8" value="string" style="shape=partialRectangle;connectable=0;fillColor=none;top=0;left=0;bottom=0;right=0;align=left;spacingLeft=2;overflow=hidden;fontSize=11;" parent="DBd0I7r8SlKwqOfB-w20-7" vertex="1">
                    <mxGeometry width="36" height="22" as="geometry">
                        <mxRectangle width="36" height="22" as="alternateBounds"/>
                    </mxGeometry>
                </mxCell>
                <mxCell id="DBd0I7r8SlKwqOfB-w20-9" value="hn" style="shape=partialRectangle;connectable=0;fillColor=none;top=0;left=0;bottom=0;right=0;align=left;spacingLeft=2;overflow=hidden;fontSize=11;" parent="DBd0I7r8SlKwqOfB-w20-7" vertex="1">
                    <mxGeometry x="36" width="66" height="22" as="geometry">
                        <mxRectangle width="66" height="22" as="alternateBounds"/>
                    </mxGeometry>
                </mxCell>
                <mxCell id="DBd0I7r8SlKwqOfB-w20-10" value="" style="shape=partialRectangle;connectable=0;fillColor=none;top=0;left=0;bottom=0;right=0;align=left;spacingLeft=2;overflow=hidden;fontSize=11;" parent="DBd0I7r8SlKwqOfB-w20-7" vertex="1">
                    <mxGeometry x="102" width="22" height="22" as="geometry">
                        <mxRectangle width="22" height="22" as="alternateBounds"/>
                    </mxGeometry>
                </mxCell>
                <mxCell id="DBd0I7r8SlKwqOfB-w20-11" value="รหัสผู้ป่วย" style="shape=partialRectangle;connectable=0;fillColor=none;top=0;left=0;bottom=0;right=0;align=left;spacingLeft=2;overflow=hidden;fontSize=11;" parent="DBd0I7r8SlKwqOfB-w20-7" vertex="1">
                    <mxGeometry x="124" width="90" height="22" as="geometry">
                        <mxRectangle width="90" height="22" as="alternateBounds"/>
                    </mxGeometry>
                </mxCell>
                <mxCell id="DBd0I7r8SlKwqOfB-w20-12" style="shape=tableRow;horizontal=0;startSize=0;swimlaneHead=0;swimlaneBody=0;fillColor=none;collapsible=0;dropTarget=0;points=[[0,0.5],[1,0.5]];portConstraint=eastwest;top=0;left=0;right=0;bottom=0;" parent="DBd0I7r8SlKwqOfB-w20-1" vertex="1">
                    <mxGeometry y="69" width="214" height="22" as="geometry"/>
                </mxCell>
                <mxCell id="DBd0I7r8SlKwqOfB-w20-13" value="string" style="shape=partialRectangle;connectable=0;fillColor=none;top=0;left=0;bottom=0;right=0;align=left;spacingLeft=2;overflow=hidden;fontSize=11;" parent="DBd0I7r8SlKwqOfB-w20-12" vertex="1">
                    <mxGeometry width="36" height="22" as="geometry">
                        <mxRectangle width="36" height="22" as="alternateBounds"/>
                    </mxGeometry>
                </mxCell>
                <mxCell id="DBd0I7r8SlKwqOfB-w20-14" value="first_name" style="shape=partialRectangle;connectable=0;fillColor=none;top=0;left=0;bottom=0;right=0;align=left;spacingLeft=2;overflow=hidden;fontSize=11;" parent="DBd0I7r8SlKwqOfB-w20-12" vertex="1">
                    <mxGeometry x="36" width="66" height="22" as="geometry">
                        <mxRectangle width="66" height="22" as="alternateBounds"/>
                    </mxGeometry>
                </mxCell>
                <mxCell id="DBd0I7r8SlKwqOfB-w20-15" value="" style="shape=partialRectangle;connectable=0;fillColor=none;top=0;left=0;bottom=0;right=0;align=left;spacingLeft=2;overflow=hidden;fontSize=11;" parent="DBd0I7r8SlKwqOfB-w20-12" vertex="1">
                    <mxGeometry x="102" width="22" height="22" as="geometry">
                        <mxRectangle width="22" height="22" as="alternateBounds"/>
                    </mxGeometry>
                </mxCell>
                <mxCell id="DBd0I7r8SlKwqOfB-w20-16" value="" style="shape=partialRectangle;connectable=0;fillColor=none;top=0;left=0;bottom=0;right=0;align=left;spacingLeft=2;overflow=hidden;fontSize=11;" parent="DBd0I7r8SlKwqOfB-w20-12" vertex="1">
                    <mxGeometry x="124" width="90" height="22" as="geometry">
                        <mxRectangle width="90" height="22" as="alternateBounds"/>
                    </mxGeometry>
                </mxCell>
                <mxCell id="DBd0I7r8SlKwqOfB-w20-17" style="shape=tableRow;horizontal=0;startSize=0;swimlaneHead=0;swimlaneBody=0;fillColor=none;collapsible=0;dropTarget=0;points=[[0,0.5],[1,0.5]];portConstraint=eastwest;top=0;left=0;right=0;bottom=0;" parent="DBd0I7r8SlKwqOfB-w20-1" vertex="1">
                    <mxGeometry y="91" width="214" height="22" as="geometry"/>
                </mxCell>
                <mxCell id="DBd0I7r8SlKwqOfB-w20-18" value="string" style="shape=partialRectangle;connectable=0;fillColor=none;top=0;left=0;bottom=0;right=0;align=left;spacingLeft=2;overflow=hidden;fontSize=11;" parent="DBd0I7r8SlKwqOfB-w20-17" vertex="1">
                    <mxGeometry width="36" height="22" as="geometry">
                        <mxRectangle width="36" height="22" as="alternateBounds"/>
                    </mxGeometry>
                </mxCell>
                <mxCell id="DBd0I7r8SlKwqOfB-w20-19" value="last_name" style="shape=partialRectangle;connectable=0;fillColor=none;top=0;left=0;bottom=0;right=0;align=left;spacingLeft=2;overflow=hidden;fontSize=11;" parent="DBd0I7r8SlKwqOfB-w20-17" vertex="1">
                    <mxGeometry x="36" width="66" height="22" as="geometry">
                        <mxRectangle width="66" height="22" as="alternateBounds"/>
                    </mxGeometry>
                </mxCell>
                <mxCell id="DBd0I7r8SlKwqOfB-w20-20" value="" style="shape=partialRectangle;connectable=0;fillColor=none;top=0;left=0;bottom=0;right=0;align=left;spacingLeft=2;overflow=hidden;fontSize=11;" parent="DBd0I7r8SlKwqOfB-w20-17" vertex="1">
                    <mxGeometry x="102" width="22" height="22" as="geometry">
                        <mxRectangle width="22" height="22" as="alternateBounds"/>
                    </mxGeometry>
                </mxCell>
                <mxCell id="DBd0I7r8SlKwqOfB-w20-21" value="" style="shape=partialRectangle;connectable=0;fillColor=none;top=0;left=0;bottom=0;right=0;align=left;spacingLeft=2;overflow=hidden;fontSize=11;" parent="DBd0I7r8SlKwqOfB-w20-17" vertex="1">
                    <mxGeometry x="124" width="90" height="22" as="geometry">
                        <mxRectangle width="90" height="22" as="alternateBounds"/>
                    </mxGeometry>
                </mxCell>
                <mxCell id="DBd0I7r8SlKwqOfB-w20-22" style="shape=tableRow;horizontal=0;startSize=0;swimlaneHead=0;swimlaneBody=0;fillColor=none;collapsible=0;dropTarget=0;points=[[0,0.5],[1,0.5]];portConstraint=eastwest;top=0;left=0;right=0;bottom=0;" parent="DBd0I7r8SlKwqOfB-w20-1" vertex="1">
                    <mxGeometry y="113" width="214" height="22" as="geometry"/>
                </mxCell>
                <mxCell id="DBd0I7r8SlKwqOfB-w20-23" value="date" style="shape=partialRectangle;connectable=0;fillColor=none;top=0;left=0;bottom=0;right=0;align=left;spacingLeft=2;overflow=hidden;fontSize=11;" parent="DBd0I7r8SlKwqOfB-w20-22" vertex="1">
                    <mxGeometry width="36" height="22" as="geometry">
                        <mxRectangle width="36" height="22" as="alternateBounds"/>
                    </mxGeometry>
                </mxCell>
                <mxCell id="DBd0I7r8SlKwqOfB-w20-24" value="birth_date" style="shape=partialRectangle;connectable=0;fillColor=none;top=0;left=0;bottom=0;right=0;align=left;spacingLeft=2;overflow=hidden;fontSize=11;" parent="DBd0I7r8SlKwqOfB-w20-22" vertex="1">
                    <mxGeometry x="36" width="66" height="22" as="geometry">
                        <mxRectangle width="66" height="22" as="alternateBounds"/>
                    </mxGeometry>
                </mxCell>
                <mxCell id="DBd0I7r8SlKwqOfB-w20-25" value="" style="shape=partialRectangle;connectable=0;fillColor=none;top=0;left=0;bottom=0;right=0;align=left;spacingLeft=2;overflow=hidden;fontSize=11;" parent="DBd0I7r8SlKwqOfB-w20-22" vertex="1">
                    <mxGeometry x="102" width="22" height="22" as="geometry">
                        <mxRectangle width="22" height="22" as="alternateBounds"/>
                    </mxGeometry>
                </mxCell>
                <mxCell id="DBd0I7r8SlKwqOfB-w20-26" value="" style="shape=partialRectangle;connectable=0;fillColor=none;top=0;left=0;bottom=0;right=0;align=left;spacingLeft=2;overflow=hidden;fontSize=11;" parent="DBd0I7r8SlKwqOfB-w20-22" vertex="1">
                    <mxGeometry x="124" width="90" height="22" as="geometry">
                        <mxRectangle width="90" height="22" as="alternateBounds"/>
                    </mxGeometry>
                </mxCell>
                <mxCell id="DBd0I7r8SlKwqOfB-w20-27" style="shape=tableRow;horizontal=0;startSize=0;swimlaneHead=0;swimlaneBody=0;fillColor=none;collapsible=0;dropTarget=0;points=[[0,0.5],[1,0.5]];portConstraint=eastwest;top=0;left=0;right=0;bottom=0;" parent="DBd0I7r8SlKwqOfB-w20-1" vertex="1">
                    <mxGeometry y="135" width="214" height="22" as="geometry"/>
                </mxCell>
                <mxCell id="DBd0I7r8SlKwqOfB-w20-28" value="string" style="shape=partialRectangle;connectable=0;fillColor=none;top=0;left=0;bottom=0;right=0;align=left;spacingLeft=2;overflow=hidden;fontSize=11;" parent="DBd0I7r8SlKwqOfB-w20-27" vertex="1">
                    <mxGeometry width="36" height="22" as="geometry">
                        <mxRectangle width="36" height="22" as="alternateBounds"/>
                    </mxGeometry>
                </mxCell>
                <mxCell id="DBd0I7r8SlKwqOfB-w20-29" value="gender" style="shape=partialRectangle;connectable=0;fillColor=none;top=0;left=0;bottom=0;right=0;align=left;spacingLeft=2;overflow=hidden;fontSize=11;" parent="DBd0I7r8SlKwqOfB-w20-27" vertex="1">
                    <mxGeometry x="36" width="66" height="22" as="geometry">
                        <mxRectangle width="66" height="22" as="alternateBounds"/>
                    </mxGeometry>
                </mxCell>
                <mxCell id="DBd0I7r8SlKwqOfB-w20-30" value="" style="shape=partialRectangle;connectable=0;fillColor=none;top=0;left=0;bottom=0;right=0;align=left;spacingLeft=2;overflow=hidden;fontSize=11;" parent="DBd0I7r8SlKwqOfB-w20-27" vertex="1">
                    <mxGeometry x="102" width="22" height="22" as="geometry">
                        <mxRectangle width="22" height="22" as="alternateBounds"/>
                    </mxGeometry>
                </mxCell>
                <mxCell id="DBd0I7r8SlKwqOfB-w20-31" value="" style="shape=partialRectangle;connectable=0;fillColor=none;top=0;left=0;bottom=0;right=0;align=left;spacingLeft=2;overflow=hidden;fontSize=11;" parent="DBd0I7r8SlKwqOfB-w20-27" vertex="1">
                    <mxGeometry x="124" width="90" height="22" as="geometry">
                        <mxRectangle width="90" height="22" as="alternateBounds"/>
                    </mxGeometry>
                </mxCell>
                <mxCell id="DBd0I7r8SlKwqOfB-w20-32" style="shape=tableRow;horizontal=0;startSize=0;swimlaneHead=0;swimlaneBody=0;fillColor=none;collapsible=0;dropTarget=0;points=[[0,0.5],[1,0.5]];portConstraint=eastwest;top=0;left=0;right=0;bottom=0;" parent="DBd0I7r8SlKwqOfB-w20-1" vertex="1">
                    <mxGeometry y="157" width="214" height="22" as="geometry"/>
                </mxCell>
                <mxCell id="DBd0I7r8SlKwqOfB-w20-33" value="string" style="shape=partialRectangle;connectable=0;fillColor=none;top=0;left=0;bottom=0;right=0;align=left;spacingLeft=2;overflow=hidden;fontSize=11;" parent="DBd0I7r8SlKwqOfB-w20-32" vertex="1">
                    <mxGeometry width="36" height="22" as="geometry">
                        <mxRectangle width="36" height="22" as="alternateBounds"/>
                    </mxGeometry>
                </mxCell>
                <mxCell id="DBd0I7r8SlKwqOfB-w20-34" value="phone" style="shape=partialRectangle;connectable=0;fillColor=none;top=0;left=0;bottom=0;right=0;align=left;spacingLeft=2;overflow=hidden;fontSize=11;" parent="DBd0I7r8SlKwqOfB-w20-32" vertex="1">
                    <mxGeometry x="36" width="66" height="22" as="geometry">
                        <mxRectangle width="66" height="22" as="alternateBounds"/>
                    </mxGeometry>
                </mxCell>
                <mxCell id="DBd0I7r8SlKwqOfB-w20-35" value="" style="shape=partialRectangle;connectable=0;fillColor=none;top=0;left=0;bottom=0;right=0;align=left;spacingLeft=2;overflow=hidden;fontSize=11;" parent="DBd0I7r8SlKwqOfB-w20-32" vertex="1">
                    <mxGeometry x="102" width="22" height="22" as="geometry">
                        <mxRectangle width="22" height="22" as="alternateBounds"/>
                    </mxGeometry>
                </mxCell>
                <mxCell id="DBd0I7r8SlKwqOfB-w20-36" value="" style="shape=partialRectangle;connectable=0;fillColor=none;top=0;left=0;bottom=0;right=0;align=left;spacingLeft=2;overflow=hidden;fontSize=11;" parent="DBd0I7r8SlKwqOfB-w20-32" vertex="1">
                    <mxGeometry x="124" width="90" height="22" as="geometry">
                        <mxRectangle width="90" height="22" as="alternateBounds"/>
                    </mxGeometry>
                </mxCell>
                <mxCell id="DBd0I7r8SlKwqOfB-w20-37" style="shape=tableRow;horizontal=0;startSize=0;swimlaneHead=0;swimlaneBody=0;fillColor=none;collapsible=0;dropTarget=0;points=[[0,0.5],[1,0.5]];portConstraint=eastwest;top=0;left=0;right=0;bottom=0;" parent="DBd0I7r8SlKwqOfB-w20-1" vertex="1">
                    <mxGeometry y="179" width="214" height="22" as="geometry"/>
                </mxCell>
                <mxCell id="DBd0I7r8SlKwqOfB-w20-38" value="int" style="shape=partialRectangle;connectable=0;fillColor=none;top=0;left=0;bottom=0;right=0;align=left;spacingLeft=2;overflow=hidden;fontSize=11;" parent="DBd0I7r8SlKwqOfB-w20-37" vertex="1">
                    <mxGeometry width="36" height="22" as="geometry">
                        <mxRectangle width="36" height="22" as="alternateBounds"/>
                    </mxGeometry>
                </mxCell>
                <mxCell id="DBd0I7r8SlKwqOfB-w20-39" value="hospital_id" style="shape=partialRectangle;connectable=0;fillColor=none;top=0;left=0;bottom=0;right=0;align=left;spacingLeft=2;overflow=hidden;fontSize=11;" parent="DBd0I7r8SlKwqOfB-w20-37" vertex="1">
                    <mxGeometry x="36" width="66" height="22" as="geometry">
                        <mxRectangle width="66" height="22" as="alternateBounds"/>
                    </mxGeometry>
                </mxCell>
                <mxCell id="DBd0I7r8SlKwqOfB-w20-40" value="FK" style="shape=partialRectangle;connectable=0;fillColor=none;top=0;left=0;bottom=0;right=0;align=left;spacingLeft=2;overflow=hidden;fontSize=11;" parent="DBd0I7r8SlKwqOfB-w20-37" vertex="1">
                    <mxGeometry x="102" width="22" height="22" as="geometry">
                        <mxRectangle width="22" height="22" as="alternateBounds"/>
                    </mxGeometry>
                </mxCell>
                <mxCell id="DBd0I7r8SlKwqOfB-w20-41" value="โรงพยาบาลต้นทาง" style="shape=partialRectangle;connectable=0;fillColor=none;top=0;left=0;bottom=0;right=0;align=left;spacingLeft=2;overflow=hidden;fontSize=11;" parent="DBd0I7r8SlKwqOfB-w20-37" vertex="1">
                    <mxGeometry x="124" width="90" height="22" as="geometry">
                        <mxRectangle width="90" height="22" as="alternateBounds"/>
                    </mxGeometry>
                </mxCell>
                <mxCell id="DBd0I7r8SlKwqOfB-w20-42" value="HOSPITALS" style="shape=table;startSize=25;container=1;collapsible=0;childLayout=tableLayout;fixedRows=1;rowLines=1;fontStyle=1;align=center;resizeLast=1;" parent="1" vertex="1">
                    <mxGeometry x="474" y="20" width="202" height="114" as="geometry"/>
                </mxCell>
                <mxCell id="DBd0I7r8SlKwqOfB-w20-43" style="shape=tableRow;horizontal=0;startSize=0;swimlaneHead=0;swimlaneBody=0;fillColor=none;collapsible=0;dropTarget=0;points=[[0,0.5],[1,0.5]];portConstraint=eastwest;top=0;left=0;right=0;bottom=0;" parent="DBd0I7r8SlKwqOfB-w20-42" vertex="1">
                    <mxGeometry y="25" width="202" height="22" as="geometry"/>
                </mxCell>
                <mxCell id="DBd0I7r8SlKwqOfB-w20-44" value="int" style="shape=partialRectangle;connectable=0;fillColor=none;top=0;left=0;bottom=0;right=0;align=left;spacingLeft=2;overflow=hidden;fontSize=11;" parent="DBd0I7r8SlKwqOfB-w20-43" vertex="1">
                    <mxGeometry width="36" height="22" as="geometry">
                        <mxRectangle width="36" height="22" as="alternateBounds"/>
                    </mxGeometry>
                </mxCell>
                <mxCell id="DBd0I7r8SlKwqOfB-w20-45" value="hospital_id" style="shape=partialRectangle;connectable=0;fillColor=none;top=0;left=0;bottom=0;right=0;align=left;spacingLeft=2;overflow=hidden;fontSize=11;" parent="DBd0I7r8SlKwqOfB-w20-43" vertex="1">
                    <mxGeometry x="36" width="66" height="22" as="geometry">
                        <mxRectangle width="66" height="22" as="alternateBounds"/>
                    </mxGeometry>
                </mxCell>
                <mxCell id="DBd0I7r8SlKwqOfB-w20-46" value="PK" style="shape=partialRectangle;connectable=0;fillColor=none;top=0;left=0;bottom=0;right=0;align=left;spacingLeft=2;overflow=hidden;fontSize=11;" parent="DBd0I7r8SlKwqOfB-w20-43" vertex="1">
                    <mxGeometry x="102" width="22" height="22" as="geometry">
                        <mxRectangle width="22" height="22" as="alternateBounds"/>
                    </mxGeometry>
                </mxCell>
                <mxCell id="DBd0I7r8SlKwqOfB-w20-47" value="" style="shape=partialRectangle;connectable=0;fillColor=none;top=0;left=0;bottom=0;right=0;align=left;spacingLeft=2;overflow=hidden;fontSize=11;" parent="DBd0I7r8SlKwqOfB-w20-43" vertex="1">
                    <mxGeometry x="124" width="78" height="22" as="geometry">
                        <mxRectangle width="78" height="22" as="alternateBounds"/>
                    </mxGeometry>
                </mxCell>
                <mxCell id="DBd0I7r8SlKwqOfB-w20-48" style="shape=tableRow;horizontal=0;startSize=0;swimlaneHead=0;swimlaneBody=0;fillColor=none;collapsible=0;dropTarget=0;points=[[0,0.5],[1,0.5]];portConstraint=eastwest;top=0;left=0;right=0;bottom=0;" parent="DBd0I7r8SlKwqOfB-w20-42" vertex="1">
                    <mxGeometry y="47" width="202" height="22" as="geometry"/>
                </mxCell>
                <mxCell id="DBd0I7r8SlKwqOfB-w20-49" value="string" style="shape=partialRectangle;connectable=0;fillColor=none;top=0;left=0;bottom=0;right=0;align=left;spacingLeft=2;overflow=hidden;fontSize=11;" parent="DBd0I7r8SlKwqOfB-w20-48" vertex="1">
                    <mxGeometry width="36" height="22" as="geometry">
                        <mxRectangle width="36" height="22" as="alternateBounds"/>
                    </mxGeometry>
                </mxCell>
                <mxCell id="DBd0I7r8SlKwqOfB-w20-50" value="name" style="shape=partialRectangle;connectable=0;fillColor=none;top=0;left=0;bottom=0;right=0;align=left;spacingLeft=2;overflow=hidden;fontSize=11;" parent="DBd0I7r8SlKwqOfB-w20-48" vertex="1">
                    <mxGeometry x="36" width="66" height="22" as="geometry">
                        <mxRectangle width="66" height="22" as="alternateBounds"/>
                    </mxGeometry>
                </mxCell>
                <mxCell id="DBd0I7r8SlKwqOfB-w20-51" value="" style="shape=partialRectangle;connectable=0;fillColor=none;top=0;left=0;bottom=0;right=0;align=left;spacingLeft=2;overflow=hidden;fontSize=11;" parent="DBd0I7r8SlKwqOfB-w20-48" vertex="1">
                    <mxGeometry x="102" width="22" height="22" as="geometry">
                        <mxRectangle width="22" height="22" as="alternateBounds"/>
                    </mxGeometry>
                </mxCell>
                <mxCell id="DBd0I7r8SlKwqOfB-w20-52" value="ชื่อโรงพยาบาล" style="shape=partialRectangle;connectable=0;fillColor=none;top=0;left=0;bottom=0;right=0;align=left;spacingLeft=2;overflow=hidden;fontSize=11;" parent="DBd0I7r8SlKwqOfB-w20-48" vertex="1">
                    <mxGeometry x="124" width="78" height="22" as="geometry">
                        <mxRectangle width="78" height="22" as="alternateBounds"/>
                    </mxGeometry>
                </mxCell>
                <mxCell id="DBd0I7r8SlKwqOfB-w20-53" style="shape=tableRow;horizontal=0;startSize=0;swimlaneHead=0;swimlaneBody=0;fillColor=none;collapsible=0;dropTarget=0;points=[[0,0.5],[1,0.5]];portConstraint=eastwest;top=0;left=0;right=0;bottom=0;" parent="DBd0I7r8SlKwqOfB-w20-42" vertex="1">
                    <mxGeometry y="69" width="202" height="22" as="geometry"/>
                </mxCell>
                <mxCell id="DBd0I7r8SlKwqOfB-w20-54" value="string" style="shape=partialRectangle;connectable=0;fillColor=none;top=0;left=0;bottom=0;right=0;align=left;spacingLeft=2;overflow=hidden;fontSize=11;" parent="DBd0I7r8SlKwqOfB-w20-53" vertex="1">
                    <mxGeometry width="36" height="22" as="geometry">
                        <mxRectangle width="36" height="22" as="alternateBounds"/>
                    </mxGeometry>
                </mxCell>
                <mxCell id="DBd0I7r8SlKwqOfB-w20-55" value="address" style="shape=partialRectangle;connectable=0;fillColor=none;top=0;left=0;bottom=0;right=0;align=left;spacingLeft=2;overflow=hidden;fontSize=11;" parent="DBd0I7r8SlKwqOfB-w20-53" vertex="1">
                    <mxGeometry x="36" width="66" height="22" as="geometry">
                        <mxRectangle width="66" height="22" as="alternateBounds"/>
                    </mxGeometry>
                </mxCell>
                <mxCell id="DBd0I7r8SlKwqOfB-w20-56" value="" style="shape=partialRectangle;connectable=0;fillColor=none;top=0;left=0;bottom=0;right=0;align=left;spacingLeft=2;overflow=hidden;fontSize=11;" parent="DBd0I7r8SlKwqOfB-w20-53" vertex="1">
                    <mxGeometry x="102" width="22" height="22" as="geometry">
                        <mxRectangle width="22" height="22" as="alternateBounds"/>
                    </mxGeometry>
                </mxCell>
                <mxCell id="DBd0I7r8SlKwqOfB-w20-57" value="" style="shape=partialRectangle;connectable=0;fillColor=none;top=0;left=0;bottom=0;right=0;align=left;spacingLeft=2;overflow=hidden;fontSize=11;" parent="DBd0I7r8SlKwqOfB-w20-53" vertex="1">
                    <mxGeometry x="124" width="78" height="22" as="geometry">
                        <mxRectangle width="78" height="22" as="alternateBounds"/>
                    </mxGeometry>
                </mxCell>
                <mxCell id="DBd0I7r8SlKwqOfB-w20-58" style="shape=tableRow;horizontal=0;startSize=0;swimlaneHead=0;swimlaneBody=0;fillColor=none;collapsible=0;dropTarget=0;points=[[0,0.5],[1,0.5]];portConstraint=eastwest;top=0;left=0;right=0;bottom=0;" parent="DBd0I7r8SlKwqOfB-w20-42" vertex="1">
                    <mxGeometry y="91" width="202" height="22" as="geometry"/>
                </mxCell>
                <mxCell id="DBd0I7r8SlKwqOfB-w20-59" value="string" style="shape=partialRectangle;connectable=0;fillColor=none;top=0;left=0;bottom=0;right=0;align=left;spacingLeft=2;overflow=hidden;fontSize=11;" parent="DBd0I7r8SlKwqOfB-w20-58" vertex="1">
                    <mxGeometry width="36" height="22" as="geometry">
                        <mxRectangle width="36" height="22" as="alternateBounds"/>
                    </mxGeometry>
                </mxCell>
                <mxCell id="DBd0I7r8SlKwqOfB-w20-60" value="phone" style="shape=partialRectangle;connectable=0;fillColor=none;top=0;left=0;bottom=0;right=0;align=left;spacingLeft=2;overflow=hidden;fontSize=11;" parent="DBd0I7r8SlKwqOfB-w20-58" vertex="1">
                    <mxGeometry x="36" width="66" height="22" as="geometry">
                        <mxRectangle width="66" height="22" as="alternateBounds"/>
                    </mxGeometry>
                </mxCell>
                <mxCell id="DBd0I7r8SlKwqOfB-w20-61" value="" style="shape=partialRectangle;connectable=0;fillColor=none;top=0;left=0;bottom=0;right=0;align=left;spacingLeft=2;overflow=hidden;fontSize=11;" parent="DBd0I7r8SlKwqOfB-w20-58" vertex="1">
                    <mxGeometry x="102" width="22" height="22" as="geometry">
                        <mxRectangle width="22" height="22" as="alternateBounds"/>
                    </mxGeometry>
                </mxCell>
                <mxCell id="DBd0I7r8SlKwqOfB-w20-62" value="" style="shape=partialRectangle;connectable=0;fillColor=none;top=0;left=0;bottom=0;right=0;align=left;spacingLeft=2;overflow=hidden;fontSize=11;" parent="DBd0I7r8SlKwqOfB-w20-58" vertex="1">
                    <mxGeometry x="124" width="78" height="22" as="geometry">
                        <mxRectangle width="78" height="22" as="alternateBounds"/>
                    </mxGeometry>
                </mxCell>
                <mxCell id="DBd0I7r8SlKwqOfB-w20-63" value="STAFFS" style="shape=table;startSize=25;container=1;collapsible=0;childLayout=tableLayout;fixedRows=1;rowLines=1;fontStyle=1;align=center;resizeLast=1;" parent="1" vertex="1">
                    <mxGeometry x="357" y="256" width="304" height="157" as="geometry"/>
                </mxCell>
                <mxCell id="DBd0I7r8SlKwqOfB-w20-64" style="shape=tableRow;horizontal=0;startSize=0;swimlaneHead=0;swimlaneBody=0;fillColor=none;collapsible=0;dropTarget=0;points=[[0,0.5],[1,0.5]];portConstraint=eastwest;top=0;left=0;right=0;bottom=0;" parent="DBd0I7r8SlKwqOfB-w20-63" vertex="1">
                    <mxGeometry y="25" width="304" height="22" as="geometry"/>
                </mxCell>
                <mxCell id="DBd0I7r8SlKwqOfB-w20-65" value="int" style="shape=partialRectangle;connectable=0;fillColor=none;top=0;left=0;bottom=0;right=0;align=left;spacingLeft=2;overflow=hidden;fontSize=11;" parent="DBd0I7r8SlKwqOfB-w20-64" vertex="1">
                    <mxGeometry width="36" height="22" as="geometry">
                        <mxRectangle width="36" height="22" as="alternateBounds"/>
                    </mxGeometry>
                </mxCell>
                <mxCell id="DBd0I7r8SlKwqOfB-w20-66" value="staff_id" style="shape=partialRectangle;connectable=0;fillColor=none;top=0;left=0;bottom=0;right=0;align=left;spacingLeft=2;overflow=hidden;fontSize=11;" parent="DBd0I7r8SlKwqOfB-w20-64" vertex="1">
                    <mxGeometry x="36" width="66" height="22" as="geometry">
                        <mxRectangle width="66" height="22" as="alternateBounds"/>
                    </mxGeometry>
                </mxCell>
                <mxCell id="DBd0I7r8SlKwqOfB-w20-67" value="PK" style="shape=partialRectangle;connectable=0;fillColor=none;top=0;left=0;bottom=0;right=0;align=left;spacingLeft=2;overflow=hidden;fontSize=11;" parent="DBd0I7r8SlKwqOfB-w20-64" vertex="1">
                    <mxGeometry x="102" width="22" height="22" as="geometry">
                        <mxRectangle width="22" height="22" as="alternateBounds"/>
                    </mxGeometry>
                </mxCell>
                <mxCell id="DBd0I7r8SlKwqOfB-w20-68" value="" style="shape=partialRectangle;connectable=0;fillColor=none;top=0;left=0;bottom=0;right=0;align=left;spacingLeft=2;overflow=hidden;fontSize=11;" parent="DBd0I7r8SlKwqOfB-w20-64" vertex="1">
                    <mxGeometry x="124" width="180" height="22" as="geometry">
                        <mxRectangle width="180" height="22" as="alternateBounds"/>
                    </mxGeometry>
                </mxCell>
                <mxCell id="DBd0I7r8SlKwqOfB-w20-69" style="shape=tableRow;horizontal=0;startSize=0;swimlaneHead=0;swimlaneBody=0;fillColor=none;collapsible=0;dropTarget=0;points=[[0,0.5],[1,0.5]];portConstraint=eastwest;top=0;left=0;right=0;bottom=0;" parent="DBd0I7r8SlKwqOfB-w20-63" vertex="1">
                    <mxGeometry y="47" width="304" height="22" as="geometry"/>
                </mxCell>
                <mxCell id="DBd0I7r8SlKwqOfB-w20-70" value="string" style="shape=partialRectangle;connectable=0;fillColor=none;top=0;left=0;bottom=0;right=0;align=left;spacingLeft=2;overflow=hidden;fontSize=11;" parent="DBd0I7r8SlKwqOfB-w20-69" vertex="1">
                    <mxGeometry width="36" height="22" as="geometry">
                        <mxRectangle width="36" height="22" as="alternateBounds"/>
                    </mxGeometry>
                </mxCell>
                <mxCell id="DBd0I7r8SlKwqOfB-w20-71" value="username" style="shape=partialRectangle;connectable=0;fillColor=none;top=0;left=0;bottom=0;right=0;align=left;spacingLeft=2;overflow=hidden;fontSize=11;" parent="DBd0I7r8SlKwqOfB-w20-69" vertex="1">
                    <mxGeometry x="36" width="66" height="22" as="geometry">
                        <mxRectangle width="66" height="22" as="alternateBounds"/>
                    </mxGeometry>
                </mxCell>
                <mxCell id="DBd0I7r8SlKwqOfB-w20-72" value="" style="shape=partialRectangle;connectable=0;fillColor=none;top=0;left=0;bottom=0;right=0;align=left;spacingLeft=2;overflow=hidden;fontSize=11;" parent="DBd0I7r8SlKwqOfB-w20-69" vertex="1">
                    <mxGeometry x="102" width="22" height="22" as="geometry">
                        <mxRectangle width="22" height="22" as="alternateBounds"/>
                    </mxGeometry>
                </mxCell>
                <mxCell id="DBd0I7r8SlKwqOfB-w20-73" value="" style="shape=partialRectangle;connectable=0;fillColor=none;top=0;left=0;bottom=0;right=0;align=left;spacingLeft=2;overflow=hidden;fontSize=11;" parent="DBd0I7r8SlKwqOfB-w20-69" vertex="1">
                    <mxGeometry x="124" width="180" height="22" as="geometry">
                        <mxRectangle width="180" height="22" as="alternateBounds"/>
                    </mxGeometry>
                </mxCell>
                <mxCell id="DBd0I7r8SlKwqOfB-w20-74" style="shape=tableRow;horizontal=0;startSize=0;swimlaneHead=0;swimlaneBody=0;fillColor=none;collapsible=0;dropTarget=0;points=[[0,0.5],[1,0.5]];portConstraint=eastwest;top=0;left=0;right=0;bottom=0;" parent="DBd0I7r8SlKwqOfB-w20-63" vertex="1">
                    <mxGeometry y="69" width="304" height="22" as="geometry"/>
                </mxCell>
                <mxCell id="DBd0I7r8SlKwqOfB-w20-75" value="string" style="shape=partialRectangle;connectable=0;fillColor=none;top=0;left=0;bottom=0;right=0;align=left;spacingLeft=2;overflow=hidden;fontSize=11;" parent="DBd0I7r8SlKwqOfB-w20-74" vertex="1">
                    <mxGeometry width="36" height="22" as="geometry">
                        <mxRectangle width="36" height="22" as="alternateBounds"/>
                    </mxGeometry>
                </mxCell>
                <mxCell id="DBd0I7r8SlKwqOfB-w20-76" value="password" style="shape=partialRectangle;connectable=0;fillColor=none;top=0;left=0;bottom=0;right=0;align=left;spacingLeft=2;overflow=hidden;fontSize=11;" parent="DBd0I7r8SlKwqOfB-w20-74" vertex="1">
                    <mxGeometry x="36" width="66" height="22" as="geometry">
                        <mxRectangle width="66" height="22" as="alternateBounds"/>
                    </mxGeometry>
                </mxCell>
                <mxCell id="DBd0I7r8SlKwqOfB-w20-77" value="" style="shape=partialRectangle;connectable=0;fillColor=none;top=0;left=0;bottom=0;right=0;align=left;spacingLeft=2;overflow=hidden;fontSize=11;" parent="DBd0I7r8SlKwqOfB-w20-74" vertex="1">
                    <mxGeometry x="102" width="22" height="22" as="geometry">
                        <mxRectangle width="22" height="22" as="alternateBounds"/>
                    </mxGeometry>
                </mxCell>
                <mxCell id="DBd0I7r8SlKwqOfB-w20-78" value="" style="shape=partialRectangle;connectable=0;fillColor=none;top=0;left=0;bottom=0;right=0;align=left;spacingLeft=2;overflow=hidden;fontSize=11;" parent="DBd0I7r8SlKwqOfB-w20-74" vertex="1">
                    <mxGeometry x="124" width="180" height="22" as="geometry">
                        <mxRectangle width="180" height="22" as="alternateBounds"/>
                    </mxGeometry>
                </mxCell>
                <mxCell id="DBd0I7r8SlKwqOfB-w20-79" style="shape=tableRow;horizontal=0;startSize=0;swimlaneHead=0;swimlaneBody=0;fillColor=none;collapsible=0;dropTarget=0;points=[[0,0.5],[1,0.5]];portConstraint=eastwest;top=0;left=0;right=0;bottom=0;" parent="DBd0I7r8SlKwqOfB-w20-63" vertex="1">
                    <mxGeometry y="91" width="304" height="22" as="geometry"/>
                </mxCell>
                <mxCell id="DBd0I7r8SlKwqOfB-w20-80" value="string" style="shape=partialRectangle;connectable=0;fillColor=none;top=0;left=0;bottom=0;right=0;align=left;spacingLeft=2;overflow=hidden;fontSize=11;" parent="DBd0I7r8SlKwqOfB-w20-79" vertex="1">
                    <mxGeometry width="36" height="22" as="geometry">
                        <mxRectangle width="36" height="22" as="alternateBounds"/>
                    </mxGeometry>
                </mxCell>
                <mxCell id="DBd0I7r8SlKwqOfB-w20-81" value="name" style="shape=partialRectangle;connectable=0;fillColor=none;top=0;left=0;bottom=0;right=0;align=left;spacingLeft=2;overflow=hidden;fontSize=11;" parent="DBd0I7r8SlKwqOfB-w20-79" vertex="1">
                    <mxGeometry x="36" width="66" height="22" as="geometry">
                        <mxRectangle width="66" height="22" as="alternateBounds"/>
                    </mxGeometry>
                </mxCell>
                <mxCell id="DBd0I7r8SlKwqOfB-w20-82" value="" style="shape=partialRectangle;connectable=0;fillColor=none;top=0;left=0;bottom=0;right=0;align=left;spacingLeft=2;overflow=hidden;fontSize=11;" parent="DBd0I7r8SlKwqOfB-w20-79" vertex="1">
                    <mxGeometry x="102" width="22" height="22" as="geometry">
                        <mxRectangle width="22" height="22" as="alternateBounds"/>
                    </mxGeometry>
                </mxCell>
                <mxCell id="DBd0I7r8SlKwqOfB-w20-83" value="" style="shape=partialRectangle;connectable=0;fillColor=none;top=0;left=0;bottom=0;right=0;align=left;spacingLeft=2;overflow=hidden;fontSize=11;" parent="DBd0I7r8SlKwqOfB-w20-79" vertex="1">
                    <mxGeometry x="124" width="180" height="22" as="geometry">
                        <mxRectangle width="180" height="22" as="alternateBounds"/>
                    </mxGeometry>
                </mxCell>
                <mxCell id="DBd0I7r8SlKwqOfB-w20-84" style="shape=tableRow;horizontal=0;startSize=0;swimlaneHead=0;swimlaneBody=0;fillColor=none;collapsible=0;dropTarget=0;points=[[0,0.5],[1,0.5]];portConstraint=eastwest;top=0;left=0;right=0;bottom=0;" parent="DBd0I7r8SlKwqOfB-w20-63" vertex="1">
                    <mxGeometry y="113" width="304" height="22" as="geometry"/>
                </mxCell>
                <mxCell id="DBd0I7r8SlKwqOfB-w20-85" value="int" style="shape=partialRectangle;connectable=0;fillColor=none;top=0;left=0;bottom=0;right=0;align=left;spacingLeft=2;overflow=hidden;fontSize=11;" parent="DBd0I7r8SlKwqOfB-w20-84" vertex="1">
                    <mxGeometry width="36" height="22" as="geometry">
                        <mxRectangle width="36" height="22" as="alternateBounds"/>
                    </mxGeometry>
                </mxCell>
                <mxCell id="DBd0I7r8SlKwqOfB-w20-86" value="hospital_id" style="shape=partialRectangle;connectable=0;fillColor=none;top=0;left=0;bottom=0;right=0;align=left;spacingLeft=2;overflow=hidden;fontSize=11;" parent="DBd0I7r8SlKwqOfB-w20-84" vertex="1">
                    <mxGeometry x="36" width="66" height="22" as="geometry">
                        <mxRectangle width="66" height="22" as="alternateBounds"/>
                    </mxGeometry>
                </mxCell>
                <mxCell id="DBd0I7r8SlKwqOfB-w20-87" value="FK" style="shape=partialRectangle;connectable=0;fillColor=none;top=0;left=0;bottom=0;right=0;align=left;spacingLeft=2;overflow=hidden;fontSize=11;" parent="DBd0I7r8SlKwqOfB-w20-84" vertex="1">
                    <mxGeometry x="102" width="22" height="22" as="geometry">
                        <mxRectangle width="22" height="22" as="alternateBounds"/>
                    </mxGeometry>
                </mxCell>
                <mxCell id="DBd0I7r8SlKwqOfB-w20-88" value="สังกัดโรงพยาบาล" style="shape=partialRectangle;connectable=0;fillColor=none;top=0;left=0;bottom=0;right=0;align=left;spacingLeft=2;overflow=hidden;fontSize=11;" parent="DBd0I7r8SlKwqOfB-w20-84" vertex="1">
                    <mxGeometry x="124" width="180" height="22" as="geometry">
                        <mxRectangle width="180" height="22" as="alternateBounds"/>
                    </mxGeometry>
                </mxCell>
                <mxCell id="DBd0I7r8SlKwqOfB-w20-89" style="shape=tableRow;horizontal=0;startSize=0;swimlaneHead=0;swimlaneBody=0;fillColor=none;collapsible=0;dropTarget=0;points=[[0,0.5],[1,0.5]];portConstraint=eastwest;top=0;left=0;right=0;bottom=0;" parent="DBd0I7r8SlKwqOfB-w20-63" vertex="1">
                    <mxGeometry y="135" width="304" height="22" as="geometry"/>
                </mxCell>
                <mxCell id="DBd0I7r8SlKwqOfB-w20-90" value="string" style="shape=partialRectangle;connectable=0;fillColor=none;top=0;left=0;bottom=0;right=0;align=left;spacingLeft=2;overflow=hidden;fontSize=11;" parent="DBd0I7r8SlKwqOfB-w20-89" vertex="1">
                    <mxGeometry width="36" height="22" as="geometry">
                        <mxRectangle width="36" height="22" as="alternateBounds"/>
                    </mxGeometry>
                </mxCell>
                <mxCell id="DBd0I7r8SlKwqOfB-w20-91" value="role" style="shape=partialRectangle;connectable=0;fillColor=none;top=0;left=0;bottom=0;right=0;align=left;spacingLeft=2;overflow=hidden;fontSize=11;" parent="DBd0I7r8SlKwqOfB-w20-89" vertex="1">
                    <mxGeometry x="36" width="66" height="22" as="geometry">
                        <mxRectangle width="66" height="22" as="alternateBounds"/>
                    </mxGeometry>
                </mxCell>
                <mxCell id="DBd0I7r8SlKwqOfB-w20-92" value="" style="shape=partialRectangle;connectable=0;fillColor=none;top=0;left=0;bottom=0;right=0;align=left;spacingLeft=2;overflow=hidden;fontSize=11;" parent="DBd0I7r8SlKwqOfB-w20-89" vertex="1">
                    <mxGeometry x="102" width="22" height="22" as="geometry">
                        <mxRectangle width="22" height="22" as="alternateBounds"/>
                    </mxGeometry>
                </mxCell>
                <mxCell id="DBd0I7r8SlKwqOfB-w20-93" value="ตำแหน่ง (admin, doctor, nurse)" style="shape=partialRectangle;connectable=0;fillColor=none;top=0;left=0;bottom=0;right=0;align=left;spacingLeft=2;overflow=hidden;fontSize=11;" parent="DBd0I7r8SlKwqOfB-w20-89" vertex="1">
                    <mxGeometry x="124" width="180" height="22" as="geometry">
                        <mxRectangle width="180" height="22" as="alternateBounds"/>
                    </mxGeometry>
                </mxCell>
                <mxCell id="DBd0I7r8SlKwqOfB-w20-94" value="APPOINTMENTS" style="shape=table;startSize=25;container=1;collapsible=0;childLayout=tableLayout;fixedRows=1;rowLines=1;fontStyle=1;align=center;resizeLast=1;" parent="1" vertex="1">
                    <mxGeometry x="580" y="542" width="334" height="163" as="geometry"/>
                </mxCell>
                <mxCell id="DBd0I7r8SlKwqOfB-w20-95" style="shape=tableRow;horizontal=0;startSize=0;swimlaneHead=0;swimlaneBody=0;fillColor=none;collapsible=0;dropTarget=0;points=[[0,0.5],[1,0.5]];portConstraint=eastwest;top=0;left=0;right=0;bottom=0;" parent="DBd0I7r8SlKwqOfB-w20-94" vertex="1">
                    <mxGeometry y="25" width="334" height="23" as="geometry"/>
                </mxCell>
                <mxCell id="DBd0I7r8SlKwqOfB-w20-96" value="int" style="shape=partialRectangle;connectable=0;fillColor=none;top=0;left=0;bottom=0;right=0;align=left;spacingLeft=2;overflow=hidden;fontSize=11;" parent="DBd0I7r8SlKwqOfB-w20-95" vertex="1">
                    <mxGeometry width="36" height="23" as="geometry">
                        <mxRectangle width="36" height="23" as="alternateBounds"/>
                    </mxGeometry>
                </mxCell>
                <mxCell id="DBd0I7r8SlKwqOfB-w20-97" value="appointment_id" style="shape=partialRectangle;connectable=0;fillColor=none;top=0;left=0;bottom=0;right=0;align=left;spacingLeft=2;overflow=hidden;fontSize=11;" parent="DBd0I7r8SlKwqOfB-w20-95" vertex="1">
                    <mxGeometry x="36" width="96" height="23" as="geometry">
                        <mxRectangle width="96" height="23" as="alternateBounds"/>
                    </mxGeometry>
                </mxCell>
                <mxCell id="DBd0I7r8SlKwqOfB-w20-98" value="PK" style="shape=partialRectangle;connectable=0;fillColor=none;top=0;left=0;bottom=0;right=0;align=left;spacingLeft=2;overflow=hidden;fontSize=11;" parent="DBd0I7r8SlKwqOfB-w20-95" vertex="1">
                    <mxGeometry x="132" width="22" height="23" as="geometry">
                        <mxRectangle width="22" height="23" as="alternateBounds"/>
                    </mxGeometry>
                </mxCell>
                <mxCell id="DBd0I7r8SlKwqOfB-w20-99" value="" style="shape=partialRectangle;connectable=0;fillColor=none;top=0;left=0;bottom=0;right=0;align=left;spacingLeft=2;overflow=hidden;fontSize=11;" parent="DBd0I7r8SlKwqOfB-w20-95" vertex="1">
                    <mxGeometry x="154" width="180" height="23" as="geometry">
                        <mxRectangle width="180" height="23" as="alternateBounds"/>
                    </mxGeometry>
                </mxCell>
                <mxCell id="DBd0I7r8SlKwqOfB-w20-100" style="shape=tableRow;horizontal=0;startSize=0;swimlaneHead=0;swimlaneBody=0;fillColor=none;collapsible=0;dropTarget=0;points=[[0,0.5],[1,0.5]];portConstraint=eastwest;top=0;left=0;right=0;bottom=0;" parent="DBd0I7r8SlKwqOfB-w20-94" vertex="1">
                    <mxGeometry y="48" width="334" height="23" as="geometry"/>
                </mxCell>
                <mxCell id="DBd0I7r8SlKwqOfB-w20-101" value="int" style="shape=partialRectangle;connectable=0;fillColor=none;top=0;left=0;bottom=0;right=0;align=left;spacingLeft=2;overflow=hidden;fontSize=11;" parent="DBd0I7r8SlKwqOfB-w20-100" vertex="1">
                    <mxGeometry width="36" height="23" as="geometry">
                        <mxRectangle width="36" height="23" as="alternateBounds"/>
                    </mxGeometry>
                </mxCell>
                <mxCell id="DBd0I7r8SlKwqOfB-w20-102" value="patient_id" style="shape=partialRectangle;connectable=0;fillColor=none;top=0;left=0;bottom=0;right=0;align=left;spacingLeft=2;overflow=hidden;fontSize=11;" parent="DBd0I7r8SlKwqOfB-w20-100" vertex="1">
                    <mxGeometry x="36" width="96" height="23" as="geometry">
                        <mxRectangle width="96" height="23" as="alternateBounds"/>
                    </mxGeometry>
                </mxCell>
                <mxCell id="DBd0I7r8SlKwqOfB-w20-103" value="FK" style="shape=partialRectangle;connectable=0;fillColor=none;top=0;left=0;bottom=0;right=0;align=left;spacingLeft=2;overflow=hidden;fontSize=11;" parent="DBd0I7r8SlKwqOfB-w20-100" vertex="1">
                    <mxGeometry x="132" width="22" height="23" as="geometry">
                        <mxRectangle width="22" height="23" as="alternateBounds"/>
                    </mxGeometry>
                </mxCell>
                <mxCell id="DBd0I7r8SlKwqOfB-w20-104" value="" style="shape=partialRectangle;connectable=0;fillColor=none;top=0;left=0;bottom=0;right=0;align=left;spacingLeft=2;overflow=hidden;fontSize=11;" parent="DBd0I7r8SlKwqOfB-w20-100" vertex="1">
                    <mxGeometry x="154" width="180" height="23" as="geometry">
                        <mxRectangle width="180" height="23" as="alternateBounds"/>
                    </mxGeometry>
                </mxCell>
                <mxCell id="DBd0I7r8SlKwqOfB-w20-105" style="shape=tableRow;horizontal=0;startSize=0;swimlaneHead=0;swimlaneBody=0;fillColor=none;collapsible=0;dropTarget=0;points=[[0,0.5],[1,0.5]];portConstraint=eastwest;top=0;left=0;right=0;bottom=0;" parent="DBd0I7r8SlKwqOfB-w20-94" vertex="1">
                    <mxGeometry y="71" width="334" height="23" as="geometry"/>
                </mxCell>
                <mxCell id="DBd0I7r8SlKwqOfB-w20-106" value="int" style="shape=partialRectangle;connectable=0;fillColor=none;top=0;left=0;bottom=0;right=0;align=left;spacingLeft=2;overflow=hidden;fontSize=11;" parent="DBd0I7r8SlKwqOfB-w20-105" vertex="1">
                    <mxGeometry width="36" height="23" as="geometry">
                        <mxRectangle width="36" height="23" as="alternateBounds"/>
                    </mxGeometry>
                </mxCell>
                <mxCell id="DBd0I7r8SlKwqOfB-w20-107" value="hospital_id" style="shape=partialRectangle;connectable=0;fillColor=none;top=0;left=0;bottom=0;right=0;align=left;spacingLeft=2;overflow=hidden;fontSize=11;" parent="DBd0I7r8SlKwqOfB-w20-105" vertex="1">
                    <mxGeometry x="36" width="96" height="23" as="geometry">
                        <mxRectangle width="96" height="23" as="alternateBounds"/>
                    </mxGeometry>
                </mxCell>
                <mxCell id="DBd0I7r8SlKwqOfB-w20-108" value="FK" style="shape=partialRectangle;connectable=0;fillColor=none;top=0;left=0;bottom=0;right=0;align=left;spacingLeft=2;overflow=hidden;fontSize=11;" parent="DBd0I7r8SlKwqOfB-w20-105" vertex="1">
                    <mxGeometry x="132" width="22" height="23" as="geometry">
                        <mxRectangle width="22" height="23" as="alternateBounds"/>
                    </mxGeometry>
                </mxCell>
                <mxCell id="DBd0I7r8SlKwqOfB-w20-109" value="โรงพยาบาลที่นัดตรวจ" style="shape=partialRectangle;connectable=0;fillColor=none;top=0;left=0;bottom=0;right=0;align=left;spacingLeft=2;overflow=hidden;fontSize=11;" parent="DBd0I7r8SlKwqOfB-w20-105" vertex="1">
                    <mxGeometry x="154" width="180" height="23" as="geometry">
                        <mxRectangle width="180" height="23" as="alternateBounds"/>
                    </mxGeometry>
                </mxCell>
                <mxCell id="DBd0I7r8SlKwqOfB-w20-110" style="shape=tableRow;horizontal=0;startSize=0;swimlaneHead=0;swimlaneBody=0;fillColor=none;collapsible=0;dropTarget=0;points=[[0,0.5],[1,0.5]];portConstraint=eastwest;top=0;left=0;right=0;bottom=0;" parent="DBd0I7r8SlKwqOfB-w20-94" vertex="1">
                    <mxGeometry y="94" width="334" height="23" as="geometry"/>
                </mxCell>
                <mxCell id="DBd0I7r8SlKwqOfB-w20-111" value="int" style="shape=partialRectangle;connectable=0;fillColor=none;top=0;left=0;bottom=0;right=0;align=left;spacingLeft=2;overflow=hidden;fontSize=11;" parent="DBd0I7r8SlKwqOfB-w20-110" vertex="1">
                    <mxGeometry width="36" height="23" as="geometry">
                        <mxRectangle width="36" height="23" as="alternateBounds"/>
                    </mxGeometry>
                </mxCell>
                <mxCell id="DBd0I7r8SlKwqOfB-w20-112" value="slot_id" style="shape=partialRectangle;connectable=0;fillColor=none;top=0;left=0;bottom=0;right=0;align=left;spacingLeft=2;overflow=hidden;fontSize=11;" parent="DBd0I7r8SlKwqOfB-w20-110" vertex="1">
                    <mxGeometry x="36" width="96" height="23" as="geometry">
                        <mxRectangle width="96" height="23" as="alternateBounds"/>
                    </mxGeometry>
                </mxCell>
                <mxCell id="DBd0I7r8SlKwqOfB-w20-113" value="FK" style="shape=partialRectangle;connectable=0;fillColor=none;top=0;left=0;bottom=0;right=0;align=left;spacingLeft=2;overflow=hidden;fontSize=11;" parent="DBd0I7r8SlKwqOfB-w20-110" vertex="1">
                    <mxGeometry x="132" width="22" height="23" as="geometry">
                        <mxRectangle width="22" height="23" as="alternateBounds"/>
                    </mxGeometry>
                </mxCell>
                <mxCell id="DBd0I7r8SlKwqOfB-w20-114" value="คิวที่ใช้" style="shape=partialRectangle;connectable=0;fillColor=none;top=0;left=0;bottom=0;right=0;align=left;spacingLeft=2;overflow=hidden;fontSize=11;" parent="DBd0I7r8SlKwqOfB-w20-110" vertex="1">
                    <mxGeometry x="154" width="180" height="23" as="geometry">
                        <mxRectangle width="180" height="23" as="alternateBounds"/>
                    </mxGeometry>
                </mxCell>
                <mxCell id="DBd0I7r8SlKwqOfB-w20-115" style="shape=tableRow;horizontal=0;startSize=0;swimlaneHead=0;swimlaneBody=0;fillColor=none;collapsible=0;dropTarget=0;points=[[0,0.5],[1,0.5]];portConstraint=eastwest;top=0;left=0;right=0;bottom=0;" parent="DBd0I7r8SlKwqOfB-w20-94" vertex="1">
                    <mxGeometry y="117" width="334" height="23" as="geometry"/>
                </mxCell>
                <mxCell id="DBd0I7r8SlKwqOfB-w20-116" value="date" style="shape=partialRectangle;connectable=0;fillColor=none;top=0;left=0;bottom=0;right=0;align=left;spacingLeft=2;overflow=hidden;fontSize=11;" parent="DBd0I7r8SlKwqOfB-w20-115" vertex="1">
                    <mxGeometry width="36" height="23" as="geometry">
                        <mxRectangle width="36" height="23" as="alternateBounds"/>
                    </mxGeometry>
                </mxCell>
                <mxCell id="DBd0I7r8SlKwqOfB-w20-117" value="appointment_date" style="shape=partialRectangle;connectable=0;fillColor=none;top=0;left=0;bottom=0;right=0;align=left;spacingLeft=2;overflow=hidden;fontSize=11;" parent="DBd0I7r8SlKwqOfB-w20-115" vertex="1">
                    <mxGeometry x="36" width="96" height="23" as="geometry">
                        <mxRectangle width="96" height="23" as="alternateBounds"/>
                    </mxGeometry>
                </mxCell>
                <mxCell id="DBd0I7r8SlKwqOfB-w20-118" value="" style="shape=partialRectangle;connectable=0;fillColor=none;top=0;left=0;bottom=0;right=0;align=left;spacingLeft=2;overflow=hidden;fontSize=11;" parent="DBd0I7r8SlKwqOfB-w20-115" vertex="1">
                    <mxGeometry x="132" width="22" height="23" as="geometry">
                        <mxRectangle width="22" height="23" as="alternateBounds"/>
                    </mxGeometry>
                </mxCell>
                <mxCell id="DBd0I7r8SlKwqOfB-w20-119" value="" style="shape=partialRectangle;connectable=0;fillColor=none;top=0;left=0;bottom=0;right=0;align=left;spacingLeft=2;overflow=hidden;fontSize=11;" parent="DBd0I7r8SlKwqOfB-w20-115" vertex="1">
                    <mxGeometry x="154" width="180" height="23" as="geometry">
                        <mxRectangle width="180" height="23" as="alternateBounds"/>
                    </mxGeometry>
                </mxCell>
                <mxCell id="DBd0I7r8SlKwqOfB-w20-120" style="shape=tableRow;horizontal=0;startSize=0;swimlaneHead=0;swimlaneBody=0;fillColor=none;collapsible=0;dropTarget=0;points=[[0,0.5],[1,0.5]];portConstraint=eastwest;top=0;left=0;right=0;bottom=0;" parent="DBd0I7r8SlKwqOfB-w20-94" vertex="1">
                    <mxGeometry y="140" width="334" height="23" as="geometry"/>
                </mxCell>
                <mxCell id="DBd0I7r8SlKwqOfB-w20-121" value="string" style="shape=partialRectangle;connectable=0;fillColor=none;top=0;left=0;bottom=0;right=0;align=left;spacingLeft=2;overflow=hidden;fontSize=11;" parent="DBd0I7r8SlKwqOfB-w20-120" vertex="1">
                    <mxGeometry width="36" height="23" as="geometry">
                        <mxRectangle width="36" height="23" as="alternateBounds"/>
                    </mxGeometry>
                </mxCell>
                <mxCell id="DBd0I7r8SlKwqOfB-w20-122" value="status" style="shape=partialRectangle;connectable=0;fillColor=none;top=0;left=0;bottom=0;right=0;align=left;spacingLeft=2;overflow=hidden;fontSize=11;" parent="DBd0I7r8SlKwqOfB-w20-120" vertex="1">
                    <mxGeometry x="36" width="96" height="23" as="geometry">
                        <mxRectangle width="96" height="23" as="alternateBounds"/>
                    </mxGeometry>
                </mxCell>
                <mxCell id="DBd0I7r8SlKwqOfB-w20-123" value="" style="shape=partialRectangle;connectable=0;fillColor=none;top=0;left=0;bottom=0;right=0;align=left;spacingLeft=2;overflow=hidden;fontSize=11;" parent="DBd0I7r8SlKwqOfB-w20-120" vertex="1">
                    <mxGeometry x="132" width="22" height="23" as="geometry">
                        <mxRectangle width="22" height="23" as="alternateBounds"/>
                    </mxGeometry>
                </mxCell>
                <mxCell id="DBd0I7r8SlKwqOfB-w20-124" value="รอดำเนินการ, เสร็จสิ้น, ยกเลิก" style="shape=partialRectangle;connectable=0;fillColor=none;top=0;left=0;bottom=0;right=0;align=left;spacingLeft=2;overflow=hidden;fontSize=11;" parent="DBd0I7r8SlKwqOfB-w20-120" vertex="1">
                    <mxGeometry x="154" width="180" height="23" as="geometry">
                        <mxRectangle width="180" height="23" as="alternateBounds"/>
                    </mxGeometry>
                </mxCell>
                <mxCell id="DBd0I7r8SlKwqOfB-w20-125" value="TRANSFERS" style="shape=table;startSize=25;container=1;collapsible=0;childLayout=tableLayout;fixedRows=1;rowLines=1;fontStyle=1;align=center;resizeLast=1;" parent="1" vertex="1">
                    <mxGeometry x="980" y="534" width="334" height="179" as="geometry"/>
                </mxCell>
                <mxCell id="DBd0I7r8SlKwqOfB-w20-126" style="shape=tableRow;horizontal=0;startSize=0;swimlaneHead=0;swimlaneBody=0;fillColor=none;collapsible=0;dropTarget=0;points=[[0,0.5],[1,0.5]];portConstraint=eastwest;top=0;left=0;right=0;bottom=0;" parent="DBd0I7r8SlKwqOfB-w20-125" vertex="1">
                    <mxGeometry y="25" width="334" height="22" as="geometry"/>
                </mxCell>
                <mxCell id="DBd0I7r8SlKwqOfB-w20-127" value="int" style="shape=partialRectangle;connectable=0;fillColor=none;top=0;left=0;bottom=0;right=0;align=left;spacingLeft=2;overflow=hidden;fontSize=11;" parent="DBd0I7r8SlKwqOfB-w20-126" vertex="1">
                    <mxGeometry width="36" height="22" as="geometry">
                        <mxRectangle width="36" height="22" as="alternateBounds"/>
                    </mxGeometry>
                </mxCell>
                <mxCell id="DBd0I7r8SlKwqOfB-w20-128" value="transfer_id" style="shape=partialRectangle;connectable=0;fillColor=none;top=0;left=0;bottom=0;right=0;align=left;spacingLeft=2;overflow=hidden;fontSize=11;" parent="DBd0I7r8SlKwqOfB-w20-126" vertex="1">
                    <mxGeometry x="36" width="96" height="22" as="geometry">
                        <mxRectangle width="96" height="22" as="alternateBounds"/>
                    </mxGeometry>
                </mxCell>
                <mxCell id="DBd0I7r8SlKwqOfB-w20-129" value="PK" style="shape=partialRectangle;connectable=0;fillColor=none;top=0;left=0;bottom=0;right=0;align=left;spacingLeft=2;overflow=hidden;fontSize=11;" parent="DBd0I7r8SlKwqOfB-w20-126" vertex="1">
                    <mxGeometry x="132" width="22" height="22" as="geometry">
                        <mxRectangle width="22" height="22" as="alternateBounds"/>
                    </mxGeometry>
                </mxCell>
                <mxCell id="DBd0I7r8SlKwqOfB-w20-130" value="" style="shape=partialRectangle;connectable=0;fillColor=none;top=0;left=0;bottom=0;right=0;align=left;spacingLeft=2;overflow=hidden;fontSize=11;" parent="DBd0I7r8SlKwqOfB-w20-126" vertex="1">
                    <mxGeometry x="154" width="180" height="22" as="geometry">
                        <mxRectangle width="180" height="22" as="alternateBounds"/>
                    </mxGeometry>
                </mxCell>
                <mxCell id="DBd0I7r8SlKwqOfB-w20-131" style="shape=tableRow;horizontal=0;startSize=0;swimlaneHead=0;swimlaneBody=0;fillColor=none;collapsible=0;dropTarget=0;points=[[0,0.5],[1,0.5]];portConstraint=eastwest;top=0;left=0;right=0;bottom=0;" parent="DBd0I7r8SlKwqOfB-w20-125" vertex="1">
                    <mxGeometry y="47" width="334" height="22" as="geometry"/>
                </mxCell>
                <mxCell id="DBd0I7r8SlKwqOfB-w20-132" value="int" style="shape=partialRectangle;connectable=0;fillColor=none;top=0;left=0;bottom=0;right=0;align=left;spacingLeft=2;overflow=hidden;fontSize=11;" parent="DBd0I7r8SlKwqOfB-w20-131" vertex="1">
                    <mxGeometry width="36" height="22" as="geometry">
                        <mxRectangle width="36" height="22" as="alternateBounds"/>
                    </mxGeometry>
                </mxCell>
                <mxCell id="DBd0I7r8SlKwqOfB-w20-133" value="patient_id" style="shape=partialRectangle;connectable=0;fillColor=none;top=0;left=0;bottom=0;right=0;align=left;spacingLeft=2;overflow=hidden;fontSize=11;" parent="DBd0I7r8SlKwqOfB-w20-131" vertex="1">
                    <mxGeometry x="36" width="96" height="22" as="geometry">
                        <mxRectangle width="96" height="22" as="alternateBounds"/>
                    </mxGeometry>
                </mxCell>
                <mxCell id="DBd0I7r8SlKwqOfB-w20-134" value="FK" style="shape=partialRectangle;connectable=0;fillColor=none;top=0;left=0;bottom=0;right=0;align=left;spacingLeft=2;overflow=hidden;fontSize=11;" parent="DBd0I7r8SlKwqOfB-w20-131" vertex="1">
                    <mxGeometry x="132" width="22" height="22" as="geometry">
                        <mxRectangle width="22" height="22" as="alternateBounds"/>
                    </mxGeometry>
                </mxCell>
                <mxCell id="DBd0I7r8SlKwqOfB-w20-135" value="" style="shape=partialRectangle;connectable=0;fillColor=none;top=0;left=0;bottom=0;right=0;align=left;spacingLeft=2;overflow=hidden;fontSize=11;" parent="DBd0I7r8SlKwqOfB-w20-131" vertex="1">
                    <mxGeometry x="154" width="180" height="22" as="geometry">
                        <mxRectangle width="180" height="22" as="alternateBounds"/>
                    </mxGeometry>
                </mxCell>
                <mxCell id="DBd0I7r8SlKwqOfB-w20-136" style="shape=tableRow;horizontal=0;startSize=0;swimlaneHead=0;swimlaneBody=0;fillColor=none;collapsible=0;dropTarget=0;points=[[0,0.5],[1,0.5]];portConstraint=eastwest;top=0;left=0;right=0;bottom=0;" parent="DBd0I7r8SlKwqOfB-w20-125" vertex="1">
                    <mxGeometry y="69" width="334" height="22" as="geometry"/>
                </mxCell>
                <mxCell id="DBd0I7r8SlKwqOfB-w20-137" value="int" style="shape=partialRectangle;connectable=0;fillColor=none;top=0;left=0;bottom=0;right=0;align=left;spacingLeft=2;overflow=hidden;fontSize=11;" parent="DBd0I7r8SlKwqOfB-w20-136" vertex="1">
                    <mxGeometry width="36" height="22" as="geometry">
                        <mxRectangle width="36" height="22" as="alternateBounds"/>
                    </mxGeometry>
                </mxCell>
                <mxCell id="DBd0I7r8SlKwqOfB-w20-138" value="from_hospital_id" style="shape=partialRectangle;connectable=0;fillColor=none;top=0;left=0;bottom=0;right=0;align=left;spacingLeft=2;overflow=hidden;fontSize=11;" parent="DBd0I7r8SlKwqOfB-w20-136" vertex="1">
                    <mxGeometry x="36" width="96" height="22" as="geometry">
                        <mxRectangle width="96" height="22" as="alternateBounds"/>
                    </mxGeometry>
                </mxCell>
                <mxCell id="DBd0I7r8SlKwqOfB-w20-139" value="FK" style="shape=partialRectangle;connectable=0;fillColor=none;top=0;left=0;bottom=0;right=0;align=left;spacingLeft=2;overflow=hidden;fontSize=11;" parent="DBd0I7r8SlKwqOfB-w20-136" vertex="1">
                    <mxGeometry x="132" width="22" height="22" as="geometry">
                        <mxRectangle width="22" height="22" as="alternateBounds"/>
                    </mxGeometry>
                </mxCell>
                <mxCell id="DBd0I7r8SlKwqOfB-w20-140" value="" style="shape=partialRectangle;connectable=0;fillColor=none;top=0;left=0;bottom=0;right=0;align=left;spacingLeft=2;overflow=hidden;fontSize=11;" parent="DBd0I7r8SlKwqOfB-w20-136" vertex="1">
                    <mxGeometry x="154" width="180" height="22" as="geometry">
                        <mxRectangle width="180" height="22" as="alternateBounds"/>
                    </mxGeometry>
                </mxCell>
                <mxCell id="DBd0I7r8SlKwqOfB-w20-141" style="shape=tableRow;horizontal=0;startSize=0;swimlaneHead=0;swimlaneBody=0;fillColor=none;collapsible=0;dropTarget=0;points=[[0,0.5],[1,0.5]];portConstraint=eastwest;top=0;left=0;right=0;bottom=0;" parent="DBd0I7r8SlKwqOfB-w20-125" vertex="1">
                    <mxGeometry y="91" width="334" height="22" as="geometry"/>
                </mxCell>
                <mxCell id="DBd0I7r8SlKwqOfB-w20-142" value="int" style="shape=partialRectangle;connectable=0;fillColor=none;top=0;left=0;bottom=0;right=0;align=left;spacingLeft=2;overflow=hidden;fontSize=11;" parent="DBd0I7r8SlKwqOfB-w20-141" vertex="1">
                    <mxGeometry width="36" height="22" as="geometry">
                        <mxRectangle width="36" height="22" as="alternateBounds"/>
                    </mxGeometry>
                </mxCell>
                <mxCell id="DBd0I7r8SlKwqOfB-w20-143" value="to_hospital_id" style="shape=partialRectangle;connectable=0;fillColor=none;top=0;left=0;bottom=0;right=0;align=left;spacingLeft=2;overflow=hidden;fontSize=11;" parent="DBd0I7r8SlKwqOfB-w20-141" vertex="1">
                    <mxGeometry x="36" width="96" height="22" as="geometry">
                        <mxRectangle width="96" height="22" as="alternateBounds"/>
                    </mxGeometry>
                </mxCell>
                <mxCell id="DBd0I7r8SlKwqOfB-w20-144" value="FK" style="shape=partialRectangle;connectable=0;fillColor=none;top=0;left=0;bottom=0;right=0;align=left;spacingLeft=2;overflow=hidden;fontSize=11;" parent="DBd0I7r8SlKwqOfB-w20-141" vertex="1">
                    <mxGeometry x="132" width="22" height="22" as="geometry">
                        <mxRectangle width="22" height="22" as="alternateBounds"/>
                    </mxGeometry>
                </mxCell>
                <mxCell id="DBd0I7r8SlKwqOfB-w20-145" value="" style="shape=partialRectangle;connectable=0;fillColor=none;top=0;left=0;bottom=0;right=0;align=left;spacingLeft=2;overflow=hidden;fontSize=11;" parent="DBd0I7r8SlKwqOfB-w20-141" vertex="1">
                    <mxGeometry x="154" width="180" height="22" as="geometry">
                        <mxRectangle width="180" height="22" as="alternateBounds"/>
                    </mxGeometry>
                </mxCell>
                <mxCell id="DBd0I7r8SlKwqOfB-w20-146" style="shape=tableRow;horizontal=0;startSize=0;swimlaneHead=0;swimlaneBody=0;fillColor=none;collapsible=0;dropTarget=0;points=[[0,0.5],[1,0.5]];portConstraint=eastwest;top=0;left=0;right=0;bottom=0;" parent="DBd0I7r8SlKwqOfB-w20-125" vertex="1">
                    <mxGeometry y="113" width="334" height="22" as="geometry"/>
                </mxCell>
                <mxCell id="DBd0I7r8SlKwqOfB-w20-147" value="date" style="shape=partialRectangle;connectable=0;fillColor=none;top=0;left=0;bottom=0;right=0;align=left;spacingLeft=2;overflow=hidden;fontSize=11;" parent="DBd0I7r8SlKwqOfB-w20-146" vertex="1">
                    <mxGeometry width="36" height="22" as="geometry">
                        <mxRectangle width="36" height="22" as="alternateBounds"/>
                    </mxGeometry>
                </mxCell>
                <mxCell id="DBd0I7r8SlKwqOfB-w20-148" value="transfer_date" style="shape=partialRectangle;connectable=0;fillColor=none;top=0;left=0;bottom=0;right=0;align=left;spacingLeft=2;overflow=hidden;fontSize=11;" parent="DBd0I7r8SlKwqOfB-w20-146" vertex="1">
                    <mxGeometry x="36" width="96" height="22" as="geometry">
                        <mxRectangle width="96" height="22" as="alternateBounds"/>
                    </mxGeometry>
                </mxCell>
                <mxCell id="DBd0I7r8SlKwqOfB-w20-149" value="" style="shape=partialRectangle;connectable=0;fillColor=none;top=0;left=0;bottom=0;right=0;align=left;spacingLeft=2;overflow=hidden;fontSize=11;" parent="DBd0I7r8SlKwqOfB-w20-146" vertex="1">
                    <mxGeometry x="132" width="22" height="22" as="geometry">
                        <mxRectangle width="22" height="22" as="alternateBounds"/>
                    </mxGeometry>
                </mxCell>
                <mxCell id="DBd0I7r8SlKwqOfB-w20-150" value="" style="shape=partialRectangle;connectable=0;fillColor=none;top=0;left=0;bottom=0;right=0;align=left;spacingLeft=2;overflow=hidden;fontSize=11;" parent="DBd0I7r8SlKwqOfB-w20-146" vertex="1">
                    <mxGeometry x="154" width="180" height="22" as="geometry">
                        <mxRectangle width="180" height="22" as="alternateBounds"/>
                    </mxGeometry>
                </mxCell>
                <mxCell id="DBd0I7r8SlKwqOfB-w20-151" style="shape=tableRow;horizontal=0;startSize=0;swimlaneHead=0;swimlaneBody=0;fillColor=none;collapsible=0;dropTarget=0;points=[[0,0.5],[1,0.5]];portConstraint=eastwest;top=0;left=0;right=0;bottom=0;" parent="DBd0I7r8SlKwqOfB-w20-125" vertex="1">
                    <mxGeometry y="135" width="334" height="22" as="geometry"/>
                </mxCell>
                <mxCell id="DBd0I7r8SlKwqOfB-w20-152" value="string" style="shape=partialRectangle;connectable=0;fillColor=none;top=0;left=0;bottom=0;right=0;align=left;spacingLeft=2;overflow=hidden;fontSize=11;" parent="DBd0I7r8SlKwqOfB-w20-151" vertex="1">
                    <mxGeometry width="36" height="22" as="geometry">
                        <mxRectangle width="36" height="22" as="alternateBounds"/>
                    </mxGeometry>
                </mxCell>
                <mxCell id="DBd0I7r8SlKwqOfB-w20-153" value="reason" style="shape=partialRectangle;connectable=0;fillColor=none;top=0;left=0;bottom=0;right=0;align=left;spacingLeft=2;overflow=hidden;fontSize=11;" parent="DBd0I7r8SlKwqOfB-w20-151" vertex="1">
                    <mxGeometry x="36" width="96" height="22" as="geometry">
                        <mxRectangle width="96" height="22" as="alternateBounds"/>
                    </mxGeometry>
                </mxCell>
                <mxCell id="DBd0I7r8SlKwqOfB-w20-154" value="" style="shape=partialRectangle;connectable=0;fillColor=none;top=0;left=0;bottom=0;right=0;align=left;spacingLeft=2;overflow=hidden;fontSize=11;" parent="DBd0I7r8SlKwqOfB-w20-151" vertex="1">
                    <mxGeometry x="132" width="22" height="22" as="geometry">
                        <mxRectangle width="22" height="22" as="alternateBounds"/>
                    </mxGeometry>
                </mxCell>
                <mxCell id="DBd0I7r8SlKwqOfB-w20-155" value="" style="shape=partialRectangle;connectable=0;fillColor=none;top=0;left=0;bottom=0;right=0;align=left;spacingLeft=2;overflow=hidden;fontSize=11;" parent="DBd0I7r8SlKwqOfB-w20-151" vertex="1">
                    <mxGeometry x="154" width="180" height="22" as="geometry">
                        <mxRectangle width="180" height="22" as="alternateBounds"/>
                    </mxGeometry>
                </mxCell>
                <mxCell id="DBd0I7r8SlKwqOfB-w20-156" style="shape=tableRow;horizontal=0;startSize=0;swimlaneHead=0;swimlaneBody=0;fillColor=none;collapsible=0;dropTarget=0;points=[[0,0.5],[1,0.5]];portConstraint=eastwest;top=0;left=0;right=0;bottom=0;" parent="DBd0I7r8SlKwqOfB-w20-125" vertex="1">
                    <mxGeometry y="157" width="334" height="22" as="geometry"/>
                </mxCell>
                <mxCell id="DBd0I7r8SlKwqOfB-w20-157" value="string" style="shape=partialRectangle;connectable=0;fillColor=none;top=0;left=0;bottom=0;right=0;align=left;spacingLeft=2;overflow=hidden;fontSize=11;" parent="DBd0I7r8SlKwqOfB-w20-156" vertex="1">
                    <mxGeometry width="36" height="22" as="geometry">
                        <mxRectangle width="36" height="22" as="alternateBounds"/>
                    </mxGeometry>
                </mxCell>
                <mxCell id="DBd0I7r8SlKwqOfB-w20-158" value="status" style="shape=partialRectangle;connectable=0;fillColor=none;top=0;left=0;bottom=0;right=0;align=left;spacingLeft=2;overflow=hidden;fontSize=11;" parent="DBd0I7r8SlKwqOfB-w20-156" vertex="1">
                    <mxGeometry x="36" width="96" height="22" as="geometry">
                        <mxRectangle width="96" height="22" as="alternateBounds"/>
                    </mxGeometry>
                </mxCell>
                <mxCell id="DBd0I7r8SlKwqOfB-w20-159" value="" style="shape=partialRectangle;connectable=0;fillColor=none;top=0;left=0;bottom=0;right=0;align=left;spacingLeft=2;overflow=hidden;fontSize=11;" parent="DBd0I7r8SlKwqOfB-w20-156" vertex="1">
                    <mxGeometry x="132" width="22" height="22" as="geometry">
                        <mxRectangle width="22" height="22" as="alternateBounds"/>
                    </mxGeometry>
                </mxCell>
                <mxCell id="DBd0I7r8SlKwqOfB-w20-160" value="รออนุมัติ, อนุมัติแล้ว, ปฏิเสธ" style="shape=partialRectangle;connectable=0;fillColor=none;top=0;left=0;bottom=0;right=0;align=left;spacingLeft=2;overflow=hidden;fontSize=11;" parent="DBd0I7r8SlKwqOfB-w20-156" vertex="1">
                    <mxGeometry x="154" width="180" height="22" as="geometry">
                        <mxRectangle width="180" height="22" as="alternateBounds"/>
                    </mxGeometry>
                </mxCell>
                <mxCell id="DBd0I7r8SlKwqOfB-w20-161" value="SCAN_RESULTS" style="shape=table;startSize=25;container=1;collapsible=0;childLayout=tableLayout;fixedRows=1;rowLines=1;fontStyle=1;align=center;resizeLast=1;" parent="1" vertex="1">
                    <mxGeometry x="613" y="812" width="238" height="135" as="geometry"/>
                </mxCell>
                <mxCell id="DBd0I7r8SlKwqOfB-w20-162" style="shape=tableRow;horizontal=0;startSize=0;swimlaneHead=0;swimlaneBody=0;fillColor=none;collapsible=0;dropTarget=0;points=[[0,0.5],[1,0.5]];portConstraint=eastwest;top=0;left=0;right=0;bottom=0;" parent="DBd0I7r8SlKwqOfB-w20-161" vertex="1">
                    <mxGeometry y="25" width="238" height="22" as="geometry"/>
                </mxCell>
                <mxCell id="DBd0I7r8SlKwqOfB-w20-163" value="int" style="shape=partialRectangle;connectable=0;fillColor=none;top=0;left=0;bottom=0;right=0;align=left;spacingLeft=2;overflow=hidden;fontSize=11;" parent="DBd0I7r8SlKwqOfB-w20-162" vertex="1">
                    <mxGeometry width="36" height="22" as="geometry">
                        <mxRectangle width="36" height="22" as="alternateBounds"/>
                    </mxGeometry>
                </mxCell>
                <mxCell id="DBd0I7r8SlKwqOfB-w20-164" value="result_id" style="shape=partialRectangle;connectable=0;fillColor=none;top=0;left=0;bottom=0;right=0;align=left;spacingLeft=2;overflow=hidden;fontSize=11;" parent="DBd0I7r8SlKwqOfB-w20-162" vertex="1">
                    <mxGeometry x="36" width="84" height="22" as="geometry">
                        <mxRectangle width="84" height="22" as="alternateBounds"/>
                    </mxGeometry>
                </mxCell>
                <mxCell id="DBd0I7r8SlKwqOfB-w20-165" value="PK" style="shape=partialRectangle;connectable=0;fillColor=none;top=0;left=0;bottom=0;right=0;align=left;spacingLeft=2;overflow=hidden;fontSize=11;" parent="DBd0I7r8SlKwqOfB-w20-162" vertex="1">
                    <mxGeometry x="120" width="22" height="22" as="geometry">
                        <mxRectangle width="22" height="22" as="alternateBounds"/>
                    </mxGeometry>
                </mxCell>
                <mxCell id="DBd0I7r8SlKwqOfB-w20-166" value="" style="shape=partialRectangle;connectable=0;fillColor=none;top=0;left=0;bottom=0;right=0;align=left;spacingLeft=2;overflow=hidden;fontSize=11;" parent="DBd0I7r8SlKwqOfB-w20-162" vertex="1">
                    <mxGeometry x="142" width="96" height="22" as="geometry">
                        <mxRectangle width="96" height="22" as="alternateBounds"/>
                    </mxGeometry>
                </mxCell>
                <mxCell id="DBd0I7r8SlKwqOfB-w20-167" style="shape=tableRow;horizontal=0;startSize=0;swimlaneHead=0;swimlaneBody=0;fillColor=none;collapsible=0;dropTarget=0;points=[[0,0.5],[1,0.5]];portConstraint=eastwest;top=0;left=0;right=0;bottom=0;" parent="DBd0I7r8SlKwqOfB-w20-161" vertex="1">
                    <mxGeometry y="47" width="238" height="22" as="geometry"/>
                </mxCell>
                <mxCell id="DBd0I7r8SlKwqOfB-w20-168" value="int" style="shape=partialRectangle;connectable=0;fillColor=none;top=0;left=0;bottom=0;right=0;align=left;spacingLeft=2;overflow=hidden;fontSize=11;" parent="DBd0I7r8SlKwqOfB-w20-167" vertex="1">
                    <mxGeometry width="36" height="22" as="geometry">
                        <mxRectangle width="36" height="22" as="alternateBounds"/>
                    </mxGeometry>
                </mxCell>
                <mxCell id="DBd0I7r8SlKwqOfB-w20-169" value="appointment_id" style="shape=partialRectangle;connectable=0;fillColor=none;top=0;left=0;bottom=0;right=0;align=left;spacingLeft=2;overflow=hidden;fontSize=11;" parent="DBd0I7r8SlKwqOfB-w20-167" vertex="1">
                    <mxGeometry x="36" width="84" height="22" as="geometry">
                        <mxRectangle width="84" height="22" as="alternateBounds"/>
                    </mxGeometry>
                </mxCell>
                <mxCell id="DBd0I7r8SlKwqOfB-w20-170" value="FK" style="shape=partialRectangle;connectable=0;fillColor=none;top=0;left=0;bottom=0;right=0;align=left;spacingLeft=2;overflow=hidden;fontSize=11;" parent="DBd0I7r8SlKwqOfB-w20-167" vertex="1">
                    <mxGeometry x="120" width="22" height="22" as="geometry">
                        <mxRectangle width="22" height="22" as="alternateBounds"/>
                    </mxGeometry>
                </mxCell>
                <mxCell id="DBd0I7r8SlKwqOfB-w20-171" value="" style="shape=partialRectangle;connectable=0;fillColor=none;top=0;left=0;bottom=0;right=0;align=left;spacingLeft=2;overflow=hidden;fontSize=11;" parent="DBd0I7r8SlKwqOfB-w20-167" vertex="1">
                    <mxGeometry x="142" width="96" height="22" as="geometry">
                        <mxRectangle width="96" height="22" as="alternateBounds"/>
                    </mxGeometry>
                </mxCell>
                <mxCell id="DBd0I7r8SlKwqOfB-w20-172" style="shape=tableRow;horizontal=0;startSize=0;swimlaneHead=0;swimlaneBody=0;fillColor=none;collapsible=0;dropTarget=0;points=[[0,0.5],[1,0.5]];portConstraint=eastwest;top=0;left=0;right=0;bottom=0;" parent="DBd0I7r8SlKwqOfB-w20-161" vertex="1">
                    <mxGeometry y="69" width="238" height="22" as="geometry"/>
                </mxCell>
                <mxCell id="DBd0I7r8SlKwqOfB-w20-173" value="text" style="shape=partialRectangle;connectable=0;fillColor=none;top=0;left=0;bottom=0;right=0;align=left;spacingLeft=2;overflow=hidden;fontSize=11;" parent="DBd0I7r8SlKwqOfB-w20-172" vertex="1">
                    <mxGeometry width="36" height="22" as="geometry">
                        <mxRectangle width="36" height="22" as="alternateBounds"/>
                    </mxGeometry>
                </mxCell>
                <mxCell id="DBd0I7r8SlKwqOfB-w20-174" value="result" style="shape=partialRectangle;connectable=0;fillColor=none;top=0;left=0;bottom=0;right=0;align=left;spacingLeft=2;overflow=hidden;fontSize=11;" parent="DBd0I7r8SlKwqOfB-w20-172" vertex="1">
                    <mxGeometry x="36" width="84" height="22" as="geometry">
                        <mxRectangle width="84" height="22" as="alternateBounds"/>
                    </mxGeometry>
                </mxCell>
                <mxCell id="DBd0I7r8SlKwqOfB-w20-175" value="" style="shape=partialRectangle;connectable=0;fillColor=none;top=0;left=0;bottom=0;right=0;align=left;spacingLeft=2;overflow=hidden;fontSize=11;" parent="DBd0I7r8SlKwqOfB-w20-172" vertex="1">
                    <mxGeometry x="120" width="22" height="22" as="geometry">
                        <mxRectangle width="22" height="22" as="alternateBounds"/>
                    </mxGeometry>
                </mxCell>
                <mxCell id="DBd0I7r8SlKwqOfB-w20-176" value="ผลตรวจ" style="shape=partialRectangle;connectable=0;fillColor=none;top=0;left=0;bottom=0;right=0;align=left;spacingLeft=2;overflow=hidden;fontSize=11;" parent="DBd0I7r8SlKwqOfB-w20-172" vertex="1">
                    <mxGeometry x="142" width="96" height="22" as="geometry">
                        <mxRectangle width="96" height="22" as="alternateBounds"/>
                    </mxGeometry>
                </mxCell>
                <mxCell id="DBd0I7r8SlKwqOfB-w20-177" style="shape=tableRow;horizontal=0;startSize=0;swimlaneHead=0;swimlaneBody=0;fillColor=none;collapsible=0;dropTarget=0;points=[[0,0.5],[1,0.5]];portConstraint=eastwest;top=0;left=0;right=0;bottom=0;" parent="DBd0I7r8SlKwqOfB-w20-161" vertex="1">
                    <mxGeometry y="91" width="238" height="22" as="geometry"/>
                </mxCell>
                <mxCell id="DBd0I7r8SlKwqOfB-w20-178" value="string" style="shape=partialRectangle;connectable=0;fillColor=none;top=0;left=0;bottom=0;right=0;align=left;spacingLeft=2;overflow=hidden;fontSize=11;" parent="DBd0I7r8SlKwqOfB-w20-177" vertex="1">
                    <mxGeometry width="36" height="22" as="geometry">
                        <mxRectangle width="36" height="22" as="alternateBounds"/>
                    </mxGeometry>
                </mxCell>
                <mxCell id="DBd0I7r8SlKwqOfB-w20-179" value="image_url" style="shape=partialRectangle;connectable=0;fillColor=none;top=0;left=0;bottom=0;right=0;align=left;spacingLeft=2;overflow=hidden;fontSize=11;" parent="DBd0I7r8SlKwqOfB-w20-177" vertex="1">
                    <mxGeometry x="36" width="84" height="22" as="geometry">
                        <mxRectangle width="84" height="22" as="alternateBounds"/>
                    </mxGeometry>
                </mxCell>
                <mxCell id="DBd0I7r8SlKwqOfB-w20-180" value="" style="shape=partialRectangle;connectable=0;fillColor=none;top=0;left=0;bottom=0;right=0;align=left;spacingLeft=2;overflow=hidden;fontSize=11;" parent="DBd0I7r8SlKwqOfB-w20-177" vertex="1">
                    <mxGeometry x="120" width="22" height="22" as="geometry">
                        <mxRectangle width="22" height="22" as="alternateBounds"/>
                    </mxGeometry>
                </mxCell>
                <mxCell id="DBd0I7r8SlKwqOfB-w20-181" value="ลิงก์ภาพ CT Scan" style="shape=partialRectangle;connectable=0;fillColor=none;top=0;left=0;bottom=0;right=0;align=left;spacingLeft=2;overflow=hidden;fontSize=11;" parent="DBd0I7r8SlKwqOfB-w20-177" vertex="1">
                    <mxGeometry x="142" width="96" height="22" as="geometry">
                        <mxRectangle width="96" height="22" as="alternateBounds"/>
                    </mxGeometry>
                </mxCell>
                <mxCell id="DBd0I7r8SlKwqOfB-w20-182" style="shape=tableRow;horizontal=0;startSize=0;swimlaneHead=0;swimlaneBody=0;fillColor=none;collapsible=0;dropTarget=0;points=[[0,0.5],[1,0.5]];portConstraint=eastwest;top=0;left=0;right=0;bottom=0;" parent="DBd0I7r8SlKwqOfB-w20-161" vertex="1">
                    <mxGeometry y="113" width="238" height="22" as="geometry"/>
                </mxCell>
                <mxCell id="DBd0I7r8SlKwqOfB-w20-183" value="date" style="shape=partialRectangle;connectable=0;fillColor=none;top=0;left=0;bottom=0;right=0;align=left;spacingLeft=2;overflow=hidden;fontSize=11;" parent="DBd0I7r8SlKwqOfB-w20-182" vertex="1">
                    <mxGeometry width="36" height="22" as="geometry">
                        <mxRectangle width="36" height="22" as="alternateBounds"/>
                    </mxGeometry>
                </mxCell>
                <mxCell id="DBd0I7r8SlKwqOfB-w20-184" value="result_date" style="shape=partialRectangle;connectable=0;fillColor=none;top=0;left=0;bottom=0;right=0;align=left;spacingLeft=2;overflow=hidden;fontSize=11;" parent="DBd0I7r8SlKwqOfB-w20-182" vertex="1">
                    <mxGeometry x="36" width="84" height="22" as="geometry">
                        <mxRectangle width="84" height="22" as="alternateBounds"/>
                    </mxGeometry>
                </mxCell>
                <mxCell id="DBd0I7r8SlKwqOfB-w20-185" value="" style="shape=partialRectangle;connectable=0;fillColor=none;top=0;left=0;bottom=0;right=0;align=left;spacingLeft=2;overflow=hidden;fontSize=11;" parent="DBd0I7r8SlKwqOfB-w20-182" vertex="1">
                    <mxGeometry x="120" width="22" height="22" as="geometry">
                        <mxRectangle width="22" height="22" as="alternateBounds"/>
                    </mxGeometry>
                </mxCell>
                <mxCell id="DBd0I7r8SlKwqOfB-w20-186" value="" style="shape=partialRectangle;connectable=0;fillColor=none;top=0;left=0;bottom=0;right=0;align=left;spacingLeft=2;overflow=hidden;fontSize=11;" parent="DBd0I7r8SlKwqOfB-w20-182" vertex="1">
                    <mxGeometry x="142" width="96" height="22" as="geometry">
                        <mxRectangle width="96" height="22" as="alternateBounds"/>
                    </mxGeometry>
                </mxCell>
                <mxCell id="DBd0I7r8SlKwqOfB-w20-187" value="SLOTS" style="shape=table;startSize=25;container=1;collapsible=0;childLayout=tableLayout;fixedRows=1;rowLines=1;fontStyle=1;align=center;resizeLast=1;" parent="1" vertex="1">
                    <mxGeometry x="20" y="265" width="262" height="140" as="geometry"/>
                </mxCell>
                <mxCell id="DBd0I7r8SlKwqOfB-w20-188" style="shape=tableRow;horizontal=0;startSize=0;swimlaneHead=0;swimlaneBody=0;fillColor=none;collapsible=0;dropTarget=0;points=[[0,0.5],[1,0.5]];portConstraint=eastwest;top=0;left=0;right=0;bottom=0;" parent="DBd0I7r8SlKwqOfB-w20-187" vertex="1">
                    <mxGeometry y="25" width="262" height="23" as="geometry"/>
                </mxCell>
                <mxCell id="DBd0I7r8SlKwqOfB-w20-189" value="int" style="shape=partialRectangle;connectable=0;fillColor=none;top=0;left=0;bottom=0;right=0;align=left;spacingLeft=2;overflow=hidden;fontSize=11;" parent="DBd0I7r8SlKwqOfB-w20-188" vertex="1">
                    <mxGeometry width="24" height="23" as="geometry">
                        <mxRectangle width="24" height="23" as="alternateBounds"/>
                    </mxGeometry>
                </mxCell>
                <mxCell id="DBd0I7r8SlKwqOfB-w20-190" value="slot_id" style="shape=partialRectangle;connectable=0;fillColor=none;top=0;left=0;bottom=0;right=0;align=left;spacingLeft=2;overflow=hidden;fontSize=11;" parent="DBd0I7r8SlKwqOfB-w20-188" vertex="1">
                    <mxGeometry x="24" width="90" height="23" as="geometry">
                        <mxRectangle width="90" height="23" as="alternateBounds"/>
                    </mxGeometry>
                </mxCell>
                <mxCell id="DBd0I7r8SlKwqOfB-w20-191" value="PK" style="shape=partialRectangle;connectable=0;fillColor=none;top=0;left=0;bottom=0;right=0;align=left;spacingLeft=2;overflow=hidden;fontSize=11;" parent="DBd0I7r8SlKwqOfB-w20-188" vertex="1">
                    <mxGeometry x="114" width="22" height="23" as="geometry">
                        <mxRectangle width="22" height="23" as="alternateBounds"/>
                    </mxGeometry>
                </mxCell>
                <mxCell id="DBd0I7r8SlKwqOfB-w20-192" value="" style="shape=partialRectangle;connectable=0;fillColor=none;top=0;left=0;bottom=0;right=0;align=left;spacingLeft=2;overflow=hidden;fontSize=11;" parent="DBd0I7r8SlKwqOfB-w20-188" vertex="1">
                    <mxGeometry x="136" width="126" height="23" as="geometry">
                        <mxRectangle width="126" height="23" as="alternateBounds"/>
                    </mxGeometry>
                </mxCell>
                <mxCell id="DBd0I7r8SlKwqOfB-w20-193" style="shape=tableRow;horizontal=0;startSize=0;swimlaneHead=0;swimlaneBody=0;fillColor=none;collapsible=0;dropTarget=0;points=[[0,0.5],[1,0.5]];portConstraint=eastwest;top=0;left=0;right=0;bottom=0;" parent="DBd0I7r8SlKwqOfB-w20-187" vertex="1">
                    <mxGeometry y="48" width="262" height="23" as="geometry"/>
                </mxCell>
                <mxCell id="DBd0I7r8SlKwqOfB-w20-194" value="int" style="shape=partialRectangle;connectable=0;fillColor=none;top=0;left=0;bottom=0;right=0;align=left;spacingLeft=2;overflow=hidden;fontSize=11;" parent="DBd0I7r8SlKwqOfB-w20-193" vertex="1">
                    <mxGeometry width="24" height="23" as="geometry">
                        <mxRectangle width="24" height="23" as="alternateBounds"/>
                    </mxGeometry>
                </mxCell>
                <mxCell id="DBd0I7r8SlKwqOfB-w20-195" value="hospital_id" style="shape=partialRectangle;connectable=0;fillColor=none;top=0;left=0;bottom=0;right=0;align=left;spacingLeft=2;overflow=hidden;fontSize=11;" parent="DBd0I7r8SlKwqOfB-w20-193" vertex="1">
                    <mxGeometry x="24" width="90" height="23" as="geometry">
                        <mxRectangle width="90" height="23" as="alternateBounds"/>
                    </mxGeometry>
                </mxCell>
                <mxCell id="DBd0I7r8SlKwqOfB-w20-196" value="FK" style="shape=partialRectangle;connectable=0;fillColor=none;top=0;left=0;bottom=0;right=0;align=left;spacingLeft=2;overflow=hidden;fontSize=11;" parent="DBd0I7r8SlKwqOfB-w20-193" vertex="1">
                    <mxGeometry x="114" width="22" height="23" as="geometry">
                        <mxRectangle width="22" height="23" as="alternateBounds"/>
                    </mxGeometry>
                </mxCell>
                <mxCell id="DBd0I7r8SlKwqOfB-w20-197" value="โรงพยาบาลที่ให้บริการ" style="shape=partialRectangle;connectable=0;fillColor=none;top=0;left=0;bottom=0;right=0;align=left;spacingLeft=2;overflow=hidden;fontSize=11;" parent="DBd0I7r8SlKwqOfB-w20-193" vertex="1">
                    <mxGeometry x="136" width="126" height="23" as="geometry">
                        <mxRectangle width="126" height="23" as="alternateBounds"/>
                    </mxGeometry>
                </mxCell>
                <mxCell id="DBd0I7r8SlKwqOfB-w20-198" style="shape=tableRow;horizontal=0;startSize=0;swimlaneHead=0;swimlaneBody=0;fillColor=none;collapsible=0;dropTarget=0;points=[[0,0.5],[1,0.5]];portConstraint=eastwest;top=0;left=0;right=0;bottom=0;" parent="DBd0I7r8SlKwqOfB-w20-187" vertex="1">
                    <mxGeometry y="71" width="262" height="23" as="geometry"/>
                </mxCell>
                <mxCell id="DBd0I7r8SlKwqOfB-w20-199" value="date" style="shape=partialRectangle;connectable=0;fillColor=none;top=0;left=0;bottom=0;right=0;align=left;spacingLeft=2;overflow=hidden;fontSize=11;" parent="DBd0I7r8SlKwqOfB-w20-198" vertex="1">
                    <mxGeometry width="24" height="23" as="geometry">
                        <mxRectangle width="24" height="23" as="alternateBounds"/>
                    </mxGeometry>
                </mxCell>
                <mxCell id="DBd0I7r8SlKwqOfB-w20-200" value="slot_date" style="shape=partialRectangle;connectable=0;fillColor=none;top=0;left=0;bottom=0;right=0;align=left;spacingLeft=2;overflow=hidden;fontSize=11;" parent="DBd0I7r8SlKwqOfB-w20-198" vertex="1">
                    <mxGeometry x="24" width="90" height="23" as="geometry">
                        <mxRectangle width="90" height="23" as="alternateBounds"/>
                    </mxGeometry>
                </mxCell>
                <mxCell id="DBd0I7r8SlKwqOfB-w20-201" value="" style="shape=partialRectangle;connectable=0;fillColor=none;top=0;left=0;bottom=0;right=0;align=left;spacingLeft=2;overflow=hidden;fontSize=11;" parent="DBd0I7r8SlKwqOfB-w20-198" vertex="1">
                    <mxGeometry x="114" width="22" height="23" as="geometry">
                        <mxRectangle width="22" height="23" as="alternateBounds"/>
                    </mxGeometry>
                </mxCell>
                <mxCell id="DBd0I7r8SlKwqOfB-w20-202" value="" style="shape=partialRectangle;connectable=0;fillColor=none;top=0;left=0;bottom=0;right=0;align=left;spacingLeft=2;overflow=hidden;fontSize=11;" parent="DBd0I7r8SlKwqOfB-w20-198" vertex="1">
                    <mxGeometry x="136" width="126" height="23" as="geometry">
                        <mxRectangle width="126" height="23" as="alternateBounds"/>
                    </mxGeometry>
                </mxCell>
                <mxCell id="DBd0I7r8SlKwqOfB-w20-203" style="shape=tableRow;horizontal=0;startSize=0;swimlaneHead=0;swimlaneBody=0;fillColor=none;collapsible=0;dropTarget=0;points=[[0,0.5],[1,0.5]];portConstraint=eastwest;top=0;left=0;right=0;bottom=0;" parent="DBd0I7r8SlKwqOfB-w20-187" vertex="1">
                    <mxGeometry y="94" width="262" height="23" as="geometry"/>
                </mxCell>
                <mxCell id="DBd0I7r8SlKwqOfB-w20-204" value="int" style="shape=partialRectangle;connectable=0;fillColor=none;top=0;left=0;bottom=0;right=0;align=left;spacingLeft=2;overflow=hidden;fontSize=11;" parent="DBd0I7r8SlKwqOfB-w20-203" vertex="1">
                    <mxGeometry width="24" height="23" as="geometry">
                        <mxRectangle width="24" height="23" as="alternateBounds"/>
                    </mxGeometry>
                </mxCell>
                <mxCell id="DBd0I7r8SlKwqOfB-w20-205" value="max_capacity" style="shape=partialRectangle;connectable=0;fillColor=none;top=0;left=0;bottom=0;right=0;align=left;spacingLeft=2;overflow=hidden;fontSize=11;" parent="DBd0I7r8SlKwqOfB-w20-203" vertex="1">
                    <mxGeometry x="24" width="90" height="23" as="geometry">
                        <mxRectangle width="90" height="23" as="alternateBounds"/>
                    </mxGeometry>
                </mxCell>
                <mxCell id="DBd0I7r8SlKwqOfB-w20-206" value="" style="shape=partialRectangle;connectable=0;fillColor=none;top=0;left=0;bottom=0;right=0;align=left;spacingLeft=2;overflow=hidden;fontSize=11;" parent="DBd0I7r8SlKwqOfB-w20-203" vertex="1">
                    <mxGeometry x="114" width="22" height="23" as="geometry">
                        <mxRectangle width="22" height="23" as="alternateBounds"/>
                    </mxGeometry>
                </mxCell>
                <mxCell id="DBd0I7r8SlKwqOfB-w20-207" value="จำนวนคิวสูงสุด" style="shape=partialRectangle;connectable=0;fillColor=none;top=0;left=0;bottom=0;right=0;align=left;spacingLeft=2;overflow=hidden;fontSize=11;" parent="DBd0I7r8SlKwqOfB-w20-203" vertex="1">
                    <mxGeometry x="136" width="126" height="23" as="geometry">
                        <mxRectangle width="126" height="23" as="alternateBounds"/>
                    </mxGeometry>
                </mxCell>
                <mxCell id="DBd0I7r8SlKwqOfB-w20-208" style="shape=tableRow;horizontal=0;startSize=0;swimlaneHead=0;swimlaneBody=0;fillColor=none;collapsible=0;dropTarget=0;points=[[0,0.5],[1,0.5]];portConstraint=eastwest;top=0;left=0;right=0;bottom=0;" parent="DBd0I7r8SlKwqOfB-w20-187" vertex="1">
                    <mxGeometry y="117" width="262" height="23" as="geometry"/>
                </mxCell>
                <mxCell id="DBd0I7r8SlKwqOfB-w20-209" value="int" style="shape=partialRectangle;connectable=0;fillColor=none;top=0;left=0;bottom=0;right=0;align=left;spacingLeft=2;overflow=hidden;fontSize=11;" parent="DBd0I7r8SlKwqOfB-w20-208" vertex="1">
                    <mxGeometry width="24" height="23" as="geometry">
                        <mxRectangle width="24" height="23" as="alternateBounds"/>
                    </mxGeometry>
                </mxCell>
                <mxCell id="DBd0I7r8SlKwqOfB-w20-210" value="available_slots" style="shape=partialRectangle;connectable=0;fillColor=none;top=0;left=0;bottom=0;right=0;align=left;spacingLeft=2;overflow=hidden;fontSize=11;" parent="DBd0I7r8SlKwqOfB-w20-208" vertex="1">
                    <mxGeometry x="24" width="90" height="23" as="geometry">
                        <mxRectangle width="90" height="23" as="alternateBounds"/>
                    </mxGeometry>
                </mxCell>
                <mxCell id="DBd0I7r8SlKwqOfB-w20-211" value="" style="shape=partialRectangle;connectable=0;fillColor=none;top=0;left=0;bottom=0;right=0;align=left;spacingLeft=2;overflow=hidden;fontSize=11;" parent="DBd0I7r8SlKwqOfB-w20-208" vertex="1">
                    <mxGeometry x="114" width="22" height="23" as="geometry">
                        <mxRectangle width="22" height="23" as="alternateBounds"/>
                    </mxGeometry>
                </mxCell>
                <mxCell id="DBd0I7r8SlKwqOfB-w20-212" value="จำนวนคิวที่เหลือ" style="shape=partialRectangle;connectable=0;fillColor=none;top=0;left=0;bottom=0;right=0;align=left;spacingLeft=2;overflow=hidden;fontSize=11;" parent="DBd0I7r8SlKwqOfB-w20-208" vertex="1">
                    <mxGeometry x="136" width="126" height="23" as="geometry">
                        <mxRectangle width="126" height="23" as="alternateBounds"/>
                    </mxGeometry>
                </mxCell>
                <mxCell id="DBd0I7r8SlKwqOfB-w20-213" value="มี" style="curved=1;startArrow=ERmandOne;startSize=10;;endArrow=ERzeroToMany;endSize=10;;exitX=0;exitY=0.76;entryX=0.61;entryY=0;rounded=0;" parent="1" source="DBd0I7r8SlKwqOfB-w20-1" target="DBd0I7r8SlKwqOfB-w20-94" edge="1">
                    <mxGeometry relative="1" as="geometry">
                        <Array as="points">
                            <mxPoint x="825" y="484"/>
                        </Array>
                    </mxGeometry>
                </mxCell>
                <mxCell id="DBd0I7r8SlKwqOfB-w20-214" value="มี" style="curved=1;startArrow=ERmandOne;startSize=10;;endArrow=ERzeroToMany;endSize=10;;exitX=0.48;exitY=1;entryX=0.43;entryY=0;rounded=0;" parent="1" source="DBd0I7r8SlKwqOfB-w20-1" target="DBd0I7r8SlKwqOfB-w20-125" edge="1">
                    <mxGeometry relative="1" as="geometry">
                        <Array as="points">
                            <mxPoint x="1128" y="484"/>
                        </Array>
                    </mxGeometry>
                </mxCell>
                <mxCell id="DBd0I7r8SlKwqOfB-w20-215" value="มี" style="curved=1;startArrow=ERmandOne;startSize=10;;endArrow=ERzeroToMany;endSize=10;;exitX=0.26;exitY=1;entryX=0.44;entryY=0;rounded=0;" parent="1" source="DBd0I7r8SlKwqOfB-w20-42" target="DBd0I7r8SlKwqOfB-w20-63" edge="1">
                    <mxGeometry relative="1" as="geometry">
                        <Array as="points">
                            <mxPoint x="491" y="184"/>
                        </Array>
                    </mxGeometry>
                </mxCell>
                <mxCell id="DBd0I7r8SlKwqOfB-w20-216" value="ให้บริการ" style="curved=1;startArrow=ERmandOne;startSize=10;;endArrow=ERzeroToMany;endSize=10;;exitX=0.88;exitY=1;entryX=0.43;entryY=0;rounded=0;" parent="1" source="DBd0I7r8SlKwqOfB-w20-42" target="DBd0I7r8SlKwqOfB-w20-94" edge="1">
                    <mxGeometry relative="1" as="geometry">
                        <Array as="points">
                            <mxPoint x="725" y="184"/>
                        </Array>
                    </mxGeometry>
                </mxCell>
                <mxCell id="DBd0I7r8SlKwqOfB-w20-217" value="เป็นต้นทาง/ปลายทาง" style="curved=1;startArrow=ERmandOne;startSize=10;;endArrow=ERzeroToMany;endSize=10;;exitX=0.94;exitY=0.75;entryX=0.04;entryY=0;rounded=0;" parent="1" source="DBd0I7r8SlKwqOfB-w20-42" target="DBd0I7r8SlKwqOfB-w20-125" edge="1">
                    <mxGeometry relative="1" as="geometry">
                        <Array as="points">
                            <mxPoint x="925" y="184"/>
                            <mxPoint x="925" y="484"/>
                        </Array>
                    </mxGeometry>
                </mxCell>
                <mxCell id="DBd0I7r8SlKwqOfB-w20-218" value="มีผลตรวจ" style="curved=1;startArrow=ERmandOne;startSize=10;;endArrow=ERzeroToMany;endSize=10;;exitX=0.43;exitY=1;entryX=0.47;entryY=0;rounded=0;" parent="1" source="DBd0I7r8SlKwqOfB-w20-94" target="DBd0I7r8SlKwqOfB-w20-161" edge="1">
                    <mxGeometry relative="1" as="geometry">
                        <Array as="points"/>
                    </mxGeometry>
                </mxCell>
                <mxCell id="DBd0I7r8SlKwqOfB-w20-219" value="กำหนดคิว" style="curved=1;startArrow=ERmandOne;startSize=10;;endArrow=ERzeroToMany;endSize=10;;exitX=0;exitY=0.71;entryX=0.45;entryY=0;rounded=0;" parent="1" source="DBd0I7r8SlKwqOfB-w20-42" target="DBd0I7r8SlKwqOfB-w20-187" edge="1">
                    <mxGeometry relative="1" as="geometry">
                        <Array as="points">
                            <mxPoint x="138" y="184"/>
                        </Array>
                    </mxGeometry>
                </mxCell>
                <mxCell id="DBd0I7r8SlKwqOfB-w20-220" value="ใช้คิวนี้" style="curved=1;startArrow=ERmandOne;startSize=10;;endArrow=ERzeroToMany;endSize=10;;exitX=0.45;exitY=1;entryX=0;entryY=0.29;rounded=0;" parent="1" source="DBd0I7r8SlKwqOfB-w20-187" target="DBd0I7r8SlKwqOfB-w20-94" edge="1">
                    <mxGeometry relative="1" as="geometry">
                        <Array as="points">
                            <mxPoint x="138" y="484"/>
                        </Array>
                    </mxGeometry>
                </mxCell>
            </root>
        </mxGraphModel>
    </diagram>
</mxfile>